<?xml version="1.0" encoding="utf-8"?>
<!-- Generator: Adobe Illustrator 16.0.0, SVG Export Plug-In . SVG Version: 6.00 Build 0)  -->
<!DOCTYPE svg PUBLIC "-//W3C//DTD SVG 1.1//EN" "http://www.w3.org/Graphics/SVG/1.1/DTD/svg11.dtd">
<svg version="1.1" id="Layer_1" xmlns="http://www.w3.org/2000/svg" xmlns:xlink="http://www.w3.org/1999/xlink" x="0px" y="0px"
	 width="300px" height="300px" viewBox="0 0 300 300" enable-background="new 0 0 300 300" xml:space="preserve">
<linearGradient id="SVGID_1_" gradientUnits="userSpaceOnUse" x1="0" y1="150" x2="300" y2="150">
	<stop  offset="0" style="stop-color:#F9ED21"/>
	<stop  offset="1" style="stop-color:#A88F31"/>
</linearGradient>
<circle fill="url(#SVGID_1_)" cx="150" cy="150" r="150"/>
<path fill-rule="evenodd" clip-rule="evenodd" fill="#4B3615" d="M264.915,170.175c2.317-4.481,6.188-6.453,10.254-8.031
	c2.471-0.958,5.027-1.561,7.665-1.653c0.811-0.028,0.982,0.219,0.646,1.056c-1.34,3.335-3.142,6.317-5.161,9.168
	c-1.589,2.24-3.431,4.096-5.617,5.515c-2.251,1.462-4.548,2.211-6.917,0.309c-0.426-0.342-0.582,0.007-0.809,0.278
	c-1.897,2.281-3.361,4.806-3.968,7.947c-0.643,3.328-2.18,6.279-3.347,9.385c-0.401,1.075-0.842,2.14-1.018,3.362
	c0.998-0.285,1.46-0.66,1.413-1.986c-0.08-2.174,1.12-3.789,2.58-5.086c2.166-1.929,4.679-2.986,7.367-3.439
	c3.811-0.643,7.65-0.249,11.603-0.305c-0.53,1.511-1.486,2.471-2.344,3.488c-2.784,3.307-5.597,6.586-9.292,8.641
	c-2.015,1.12-4.159,1.28-6.337,1.054c-0.978-0.101-1.903-0.5-2.548-1.413c-0.378-0.529-0.702-0.569-1.211-0.202
	c-1.404,1.015-2.685,2.19-3.464,3.877c-2.195,4.739-5.112,8.934-7.679,13.394c-0.183,0.315-0.36,0.635-0.552,0.975
	c1.451,0.113,1.867-0.211,2.211-1.588c0.364-1.456,1.209-2.514,2.298-3.319c1.896-1.404,4.006-1.976,6.248-2.096
	c3.823-0.2,7.492,0.643,11.094,2c0.811,0.307,1.642,0.553,2.464,0.824c0.173,0.058,0.391,0.028,0.448,0.293
	c0.052,0.247-0.082,0.373-0.246,0.505c-3.793,3.01-7.644,5.898-12.089,7.559c-2.103,0.786-4.249,0.877-6.399,0.354
	c-1.518-0.371-2.779-1.251-3.539-2.842c-0.289-0.611-0.685-0.543-1.131-0.451c-1.847,0.375-3.357,1.473-4.526,3.06
	c-3.19,4.335-6.752,8.233-10.491,11.942c-0.076,0.073-0.116,0.195-0.178,0.307c1.626,0.295,1.668,0.246,2.417-1.349
	c0.835-1.784,2.333-2.542,3.929-3.098c2.335-0.813,4.644-0.484,6.945,0.229c3.497,1.087,6.905,2.432,10.071,4.473
	c0.606,0.392,1.502,0.8,1.482,1.561c-0.016,0.586-1.016,0.624-1.584,0.889c-2.723,1.264-5.384,2.73-8.302,3.363
	c-3.055,0.66-6.121,1.22-9.125-0.262c-1.675-0.824-3.186-1.896-3.719-4.07c-0.118-0.484-0.416-0.427-0.7-0.389
	c-1.973,0.271-3.931,0.612-5.535,2.104c-3.65,3.393-7.856,5.823-11.767,8.768c-0.309,0.231-0.615,0.46-0.951,0.711
	c1.26,0.636,2.049,0.442,2.765-0.633c1.755-2.64,4.241-2.789,6.785-2.397c3.53,0.546,6.506,2.635,9.412,4.792
	c1.806,1.343,3.586,2.756,5.021,4.631c0.246,0.319,0.6,0.645,0.515,1.07c-0.108,0.552-0.631,0.338-0.95,0.362
	c-4.12,0.336-8.192,1.516-12.356,0.953c-2.508-0.34-5.037-0.595-7.025-2.783c-0.904-0.993-1.471-2.106-1.795-3.427
	c-0.225-0.904-0.683-1.184-1.533-1.239c-2.546-0.165-4.868,0.513-7.079,1.903c-3.084,1.942-6.534,2.831-9.792,4.279
	c-0.544,0.242-1.086,0.484-1.866,0.831c0.876,0.298,1.436,0.74,2.089,0.099c2.322-2.282,5.011-2.014,7.441-0.693
	c4.938,2.682,8.81,6.888,11.929,11.978c0.188,0.312,0.322,0.667,0.471,1.007c0.245,0.56,0.054,0.753-0.46,0.746
	c-5.51-0.082-10.969-0.513-16.028-3.332c-2.688-1.498-4.539-3.706-4.368-7.408c0.024-0.551-0.148-0.789-0.673-0.913
	c-3.68-0.866-7.182,0.167-10.688,1.204c-0.34,0.103-0.424,0.36-0.558,0.688c-0.92,2.233-0.535,4.258,0.655,6.204
	c1.149,1.882,2.504,3.572,3.755,5.358c1.278,1.824,2.603,3.655,3.022,6.006c0.486,2.735,0.335,5.466-0.418,8.137
	c-0.045,0.158-0.109,0.322-0.324,0.28c-0.258-0.16-0.146-0.438-0.098-0.653c0.524-2.422-0.111-4.575-1.109-6.686
	c-1.515-3.213-3.826-5.582-6.276-7.825c-1.369-1.251-2.596-2.669-3.577-4.34c-0.873-1.484-1.082-3.051-0.392-4.684
	c0.32-0.762,0.263-1.075-0.56-0.978c-1.742,0.204-3.49,0.36-5.234,0.549c-0.913,0.098-1.305,0.942-1.68,1.693
	c-0.402,0.804-0.662,1.699-0.974,2.56c-0.258,0.702-0.566,1.355-1.304,2.042c0.439-4.513-0.733-8.746-0.085-13.022
	c0.045-0.291,0.091-0.589,0.187-0.86c0.209-0.6,0.491-1.322,1.071-1.328c0.54-0.005,0.362,0.815,0.509,1.251
	c0.648,1.933,2.02,3.197,3.811,3.11c1.971-0.094,3.939-0.347,5.896-0.634c0.72-0.104,1.462-0.344,2.014-1.004
	c0.457-0.544,0.631-0.976-0.034-1.533c-0.73-0.615-0.979-1.595-1.084-2.568c-0.317-2.978-0.007-5.851,1.474-8.41
	c2.013-3.479,4.401-6.609,7.092-9.44c0.286-0.302,0.606-0.809,1.018-0.608c0.36,0.178,0.218,0.764,0.247,1.171
	c0.293,4.262,0.566,8.525-0.196,12.767c-0.284,1.586-0.737,3.104-1.455,4.504c-1.093,2.138-2.65,3.515-4.895,3.722
	c-0.214,0.02-0.462-0.024-0.587,0.493c0.611,0.197,1.22,0.04,1.789-0.073c4.642-0.925,9.087-2.636,13.542-4.315
	c0.584-0.22,1.075-0.589,1.399-1.195c0.345-0.64,0.407-1.082-0.258-1.682c-1.357-1.227-1.95-2.844-2.026-4.943
	c-0.213-5.906,1.978-10.726,4.864-15.313c0.387-0.617,0.725-1.277,1.06-1.938c0.14-0.273,0.271-0.495,0.584-0.482
	c0.301,0.014,0.352,0.271,0.409,0.512c1.188,5.013,2.702,9.969,2.136,15.293c-0.202,1.906-0.698,3.708-1.687,5.313
	c-0.695,1.131-1.594,1.901-2.789,2.15c-0.497,0.103-0.847,0.28-0.944,0.974c0.512,0.117,0.909-0.258,1.309-0.447
	c4.284-2.004,8.379-4.43,12.318-7.188c0.569-0.397,1.148-0.789,1.528-1.457c0.855-1.5,0.751-1.651-0.549-2.484
	c-2.173-1.394-2.617-3.861-2.768-6.415c-0.238-4.03,0.473-7.909,1.557-11.72c0.414-1.449,0.822-2.901,1.589-4.175
	c0.315-0.522,0.601-0.849,1.026-0.014c2.045,4.009,3.795,8.144,4.518,12.747c0.269,1.72,0.23,3.468,0.064,5.19
	c-0.162,1.706-0.911,3.108-2.131,4.163c-0.411,0.355-0.851,0.681-1.12,1.227c0.251,0.231,0.423-0.013,0.566-0.129
	c3.755-2.999,7.295-6.301,10.726-9.756c0.855-0.862,1.41-1.964,1.784-3.18c0.195-0.646,0.19-1.084-0.629-1.173
	c-1.438-0.153-2.484-1.124-3.188-2.504c-0.891-1.749-1.564-3.549-1.838-5.624c-0.622-4.734-0.051-9.354,0.567-14
	c0.093-0.702,0.413-0.577,0.781-0.366c0.609,0.354,1.092,0.896,1.522,1.478c2.741,3.697,4.905,7.785,6.105,12.434
	c0.767,2.971,0.735,5.879-1.566,8.163c-0.249,0.249-0.431,0.571-0.491,1.104c0.742-0.552,1.256-1.24,1.753-1.915
	c2.315-3.151,4.622-6.313,6.891-9.503c1.013-1.425,1.804-2.993,2.098-4.849c0.119-0.771-0.005-1.126-0.749-1.062
	c-2.251,0.19-3.671-1.322-4.948-3.127c-2.082-2.943-2.617-6.496-3.021-10.073c-0.265-2.345-0.331-4.718-0.514-7.077
	c-0.08-1.026,0.238-1.157,0.989-0.72c2.406,1.399,4.239,3.57,6.05,5.766c1.175,1.42,2.182,2.993,3.152,4.604
	c1.312,2.173,1.718,4.542,1.518,7.114c-0.073,0.942-0.441,1.687-0.995,2.343c-0.28,0.333-0.608,0.626-0.26,1.257
	c1.258-2.015,2.275-4.114,3.195-6.276c1.391-3.269,3.104-6.361,4.059-9.872c0.263-0.966,0.047-1.833,0.059-2.744
	c0.006-0.429-0.27-0.322-0.467-0.272c-3.051,0.769-5.144-1.052-7.001-3.394c-2.364-2.981-3.345-6.752-4.433-10.437
	c-0.434-1.461-0.683-2.993-1.012-4.493c-0.159-0.729,0.338-0.554,0.603-0.482c0.911,0.246,1.76,0.686,2.586,1.182
	c2.873,1.717,5.729,3.468,8.121,6.012c2.104,2.24,3.453,4.871,3.131,8.301c-0.029,0.31-0.002,0.623,0.171,0.974
	c0.349-1.098,0.798-2.166,1.031-3.293c0.811-3.908,1.891-7.741,2.49-11.705c0.101-0.667,0.178-1.325-0.068-1.994
	c-0.529-1.44-0.649-1.426-1.982-1.1c-2.415,0.593-4.61-0.214-6.595-1.762c-2.07-1.615-3.517-3.873-4.79-6.285
	c-1.146-2.18-2.324-4.342-3.171-6.701c-0.469-1.309-0.382-1.463,0.827-1.223c5.152,1.025,9.927,3.017,13.811,7.183
	c1.603,1.718,2.251,3.838,1.894,6.323c-0.071,0.501-0.073,0.926,0.604,1.139c0.237-3.78,0.513-7.508,0.693-11.242
	c0.093-1.941,0.018-3.893,0.018-5.839c0-0.254-0.009-0.508-0.009-0.762c0-0.8-0.521-1.302-0.897-1.853
	c-0.587-0.854-1.012,0.112-1.489,0.299c-2.115,0.822-4.197,0.646-6.21-0.333c-2.086-1.014-3.828-2.634-5.393-4.461
	c-1.871-2.188-3.486-4.624-5.01-7.134c-0.42-0.69-0.522-1.147,0.446-1.148c4.368-0.002,8.627,0.667,12.676,2.623
	c1.382,0.668,2.65,1.548,3.69,2.813c1.062,1.295,1.659,2.782,1.564,4.591c-0.021,0.383-0.245,0.854,0.26,1.176
	c0.342-0.741,0.521-1.476,0.096-2.239c-0.174-0.311-0.193-0.627-0.185-0.969c0.14-4.793-0.927-9.39-1.802-14.016
	c-0.242-1.281-1.054-2.104-1.942-2.84c-0.227-0.188-0.418-0.292-0.685-0.024c-2.459,2.468-5.232,2.149-7.972,0.909
	c-4.232-1.916-7.688-5.125-10.773-8.868c-0.227-0.272-0.442-0.579-0.472-1.041c1.094-0.471,2.267-0.32,3.396-0.454
	c3.642-0.431,7.296-0.754,10.874,0.51c2.97,1.049,5.234,2.891,5.569,6.752c0.049,0.559,0.358,0.792,0.894,0.906
	c0.007-1.534-0.474-2.915-0.807-4.317c-0.854-3.6-2.184-7.01-3.321-10.496c-0.566-1.739-1.68-2.958-2.986-4.001
	c-0.418-0.334-0.727-0.378-1.016,0.119c-1.941,3.327-4.928,3.031-7.672,2.38c-4.035-0.957-7.728-3.053-11.118-5.751
	c-0.484-0.386-0.969-0.791-1.202-1.584c4.244-1.45,8.398-3.32,12.92-2.922c2.324,0.204,4.69,0.539,6.354,2.816
	c0.507,0.696,0.998,1.417,1.12,2.3c0.122,0.866,0.533,1.217,1.317,1.37c-0.448-1.535-1.091-2.893-1.767-4.232
	c-0.906-1.798-1.844-3.576-2.73-5.388c-0.735-1.504-1.746-2.597-3.192-3.194c-0.693-0.288-1.362-0.684-2.005-1.109
	c-0.448-0.3-0.8-0.4-1.137,0.135c-1.909,3.036-4.69,2.839-7.481,2.581c-1.893-0.174-3.598-0.998-5.264-1.989
	c-2.281-1.356-4.56-2.714-6.63-4.463c-0.289-0.244-0.693-0.626-0.687-0.934c0.011-0.521,0.591-0.333,0.911-0.476
	c3.726-1.656,7.578-2.495,11.591-2.248c1.603,0.099,3.213,0.201,4.727,0.871c1.286,0.569,2.572,1.413,2.817,3.01
	c0.34,2.22,1.775,2.363,3.311,2.631c-0.923-1.289-1.847-2.577-2.771-3.867c-1.456-2.036-2.911-4.074-4.368-6.111
	c-0.278-0.391-0.519-0.881-1.073-0.716c-3.422,1.016-5.711-1.037-7.726-3.726c-2.331-3.114-3.26-6.993-4.389-10.747
	c-0.575-1.917-1.051-3.878-1.371-5.878c-0.049-0.322-0.168-0.729,0.111-0.948c0.27-0.212,0.564,0.025,0.833,0.18
	c3.662,2.11,7.255,4.342,10.441,7.334c1.95,1.833,3.299,4.104,4.139,6.8c0.529,1.701,0.376,3.334-0.286,4.925
	c-0.376,0.902-0.191,1.48,0.484,2.158c3.18,3.19,5.681,7.036,8.063,10.991c0.416,0.69,0.876,1.348,1.345,2.066
	c0.742-1.799,0.571-2.533-0.742-3.589c-1.213-0.975-1.964-2.297-2.23-3.957c-0.392-2.452-0.294-4.892,0.277-7.289
	c0.969-4.054,2.267-7.966,4.14-11.607c0.298-0.582,0.673-1.115,1.021-1.663c0.4-0.628,0.744-0.609,1.021,0.13
	c2.195,5.861,3.741,11.869,3.213,18.34c-0.125,1.534-0.573,2.983-1.221,4.323c-0.708,1.471-1.748,2.562-3.301,2.711
	c-0.705,0.067-0.85,0.421-0.815,1.135c0.129,2.784,0.553,5.411,2.112,7.736c1.704,2.543,2.476,5.667,3.767,8.476
	c0.822,1.793,1.563,3.633,2.435,5.662c0.238-0.825,0.392-1.447,0.601-2.043c0.193-0.557,0.075-0.993-0.296-1.366
	c-2.777-2.777-2.901-6.305-1.866-9.903c1.558-5.418,4.266-10.129,7.637-14.338c0.917-1.144,1.1-1.092,1.433,0.363
	c0.718,3.137,1.029,6.339,1.191,9.577c0.126,2.503,0.279,4.978-0.385,7.417c-0.976,3.568-2.549,6.509-6.048,7.414
	c-0.493,0.127-0.486,0.518-0.566,0.94c-0.683,3.532-0.4,6.915,0.828,10.288c1.425,3.902,2.478,7.953,2.986,12.16
	c0.047,0.372,0.167,0.732,0.256,1.121c1.013-1.084,1.122-1.708,0.413-2.865c-1.866-3.048-1.142-6.065,0.146-9.001
	c1.615-3.676,4.291-6.356,6.937-9.038c1.251-1.268,2.505-2.544,3.988-3.466c1.061-0.658,1.294-0.493,1.275,0.893
	c-0.058,4.506-0.582,8.942-1.795,13.237c-0.615,2.182-1.65,4.167-2.84,6.017c-1.251,1.947-3.1,2.572-5.119,2.551
	c-0.791-0.008-0.981,0.355-1.291,1.108c-1.615,3.94-0.659,8.001-0.542,12.007c0.103,3.535,0.409,7.062,0.631,10.724
	c0.791-0.783,1.205-1.35,0.729-2.679c-0.96-2.684-0.202-5.234,1.146-7.563c1.055-1.824,2.403-3.354,3.983-4.583
	c2.866-2.227,5.872-4.185,9.019-5.857c0.371-0.197,0.767-0.325,1.148-0.496c0.634-0.284,0.818,0.025,0.727,0.7
	c-0.18,1.341-0.479,2.651-0.871,3.93c-1.197,3.915-2.321,7.875-4.503,11.276c-1.5,2.336-3.284,4.279-5.91,4.886
	c-0.969,0.223-1.936,0.309-2.84-0.246c-0.5-0.307-0.713-0.049-0.965,0.398c-0.931,1.655-1.69,3.387-1.957,5.348
	c-0.46,3.382-0.902,6.766-1.351,10.148c-0.174,0.857,0.089,1.734-0.085,2.59c-0.433,1.255-0.279,2.652-0.715,3.933
	c0.488-0.278,0.758-0.693,0.577-1.307c-0.233-0.794-0.136-1.567,0.012-2.349C264.455,171.548,264.379,170.733,264.915,170.175z"/>
<path fill-rule="evenodd" clip-rule="evenodd" fill="#4B3615" d="M99.638,252.494c-3.546-1.547-6.902-3.626-10.571-4.833
	c-1.396-0.458-2.814-0.256-4.225-0.305c-0.346-0.011-0.555,0.16-0.601,0.578c-0.4,3.637-2.678,5.148-5.418,6.097
	c-2.678,0.929-5.409,1.091-8.185,0.707c-2.625-0.365-5.261-0.649-7.89-0.982c-0.31-0.04-0.77,0.111-0.861-0.34
	c-0.05-0.249,0.197-0.62,0.378-0.873c1.194-1.658,2.729-2.873,4.274-4.053c2.604-1.986,5.317-3.764,8.293-4.946
	c2.431-0.966,4.87-1.208,7.257,0.233c0.502,0.305,0.938,0.695,1.308,1.173c1.079,1.4,1.074,1.404,2.797,0.989
	c-0.149-0.547-0.575-0.756-0.932-1.005c-3.932-2.748-8.039-5.172-11.674-8.46c-1.546-1.4-3.427-2.014-5.417-2.129
	c-0.327-0.018-0.631-0.198-0.796,0.357c-1.124,3.793-3.892,4.746-6.962,4.999c-4.405,0.367-8.451-1.255-12.432-3.133
	c-0.963-0.455-1.933-0.891-2.904-1.321c-0.207-0.094-0.461-0.109-0.522-0.4c-0.068-0.324,0.177-0.418,0.366-0.547
	c4.339-2.983,8.931-5.257,13.988-6.081c2.526-0.408,4.888,0.305,7.019,1.92c0.565,0.427,1.025,0.993,1.356,1.664
	c0.746,1.514,0.738,1.522,2.521,1.253c-0.692-0.715-1.311-1.361-1.937-2.002c-3.246-3.314-6.294-6.85-9.215-10.533
	c-1.185-1.495-2.799-2.183-4.48-2.691c-0.451-0.135-0.678-0.015-0.904,0.418c-1.163,2.227-3.099,2.871-5.176,3.066
	c-2.524,0.237-4.85-0.702-7.13-1.798c-3.2-1.537-6.334-3.219-9.036-5.752c-1.141-1.069-1.064-1.397,0.346-1.889
	c4.111-1.438,8.276-2.506,12.622-2.38c1.859,0.054,3.625,0.486,5.295,1.389c1.497,0.812,2.754,2,3.266,3.811
	c0.429,1.522,1.291,2.031,2.658,2.122c-1.883-2.56-3.544-5.186-5.052-7.932c-1.202-2.188-2.346-4.42-3.549-6.608
	c-0.881-1.602-2.112-2.83-3.442-3.943c-0.408-0.343-0.699-0.512-1.098,0.068c-0.793,1.151-1.935,1.4-3.17,1.56
	c-3.348,0.434-6.108-1.023-8.715-3.166c-2.941-2.415-5.735-5.001-7.916-8.341c-0.199-0.302-0.375-0.631-0.531-0.966
	c-0.084-0.179-0.106-0.396-0.214-0.825c1.589,0,3.093,0.022,4.597-0.004c3.517-0.061,7.016,0.044,10.398,1.315
	c2.715,1.021,5.037,2.579,6.015,5.883c0.141,0.476,0.266,0.987,0.265,1.482c-0.004,1.265,0.559,1.906,1.604,2.117
	c0.149-0.225,0.007-0.413-0.066-0.586c-2.13-4.986-3.854-10.149-5.275-15.449c-0.531-1.981-1.989-3.234-3.048-4.801
	c-0.267-0.396-0.49-0.218-0.756-0.034c-2.668,1.845-5.269,1.103-7.623-0.622c-3.55-2.6-5.944-6.47-8.188-10.441
	c-0.684-1.211-1.29-2.473-1.79-3.798c-0.346-0.917-0.176-1.32,0.767-1.246c2.325,0.18,4.563,0.826,6.767,1.614
	c3.245,1.16,6.428,2.506,9.036,5.111c0.581,0.58,1.044,1.313,1.561,1.974c1.125,1.389,1.079,3.141,1.082,4.834
	c0.001,0.738,0.027,1.375,0.522,1.964c-0.434-1.993-0.523-4.009-0.966-5.952c-0.048-0.212-0.031-0.415,0.072-0.604
	c-0.301-2.923-0.706-5.838-0.873-8.771c-0.154-2.705-1.681-4.654-2.61-6.931c-0.185-0.453-0.58-0.298-0.895-0.181
	c-2.497,0.92-4.53-0.123-6.357-1.957c-1.153-1.157-2.109-2.519-2.868-4.037c-2.071-4.138-3.701-8.485-4.676-13.126
	c-0.334-1.59-0.15-1.83,1.147-1.27c5.42,2.335,10.305,5.586,13.774,11.029c1.484,2.33,2.203,4.881,0.905,7.718
	c-0.468,1.024,0.399,1.548,1.096,2.199c0-1.365,0.003-2.732-0.001-4.098c-0.013-4.069,0.313-8.11,0.781-12.139
	c0.271-2.325,0-4.548-0.869-6.682c-0.23-0.564-0.464-0.852-1.1-0.702c-1.488,0.352-2.79-0.198-3.934-1.3
	c-1.958-1.887-3.291-4.193-3.969-7.037c-1.065-4.457-2.142-8.897-1.978-13.581c0.049-1.43,0.287-1.672,1.348-0.839
	c4.288,3.37,8.245,7.138,10.847,12.409c1.002,2.031,1.217,4.248,1.04,6.52c-0.062,0.796-0.222,1.662-0.767,2.2
	c-1.078,1.064-0.422,1.977,0.046,3.109c0.468-0.695,0.331-1.406,0.449-2.027c0.94-4.928,2.44-9.665,3.803-14.448
	c0.347-1.219,0.691-2.405,0.375-3.705c-0.079-0.32-0.071-0.671-0.08-1.009c-0.053-1.892-0.307-3.203-2.396-3.93
	c-2.793-0.973-3.804-4.109-4.467-7.133c-0.993-4.528-0.467-9.045,0.264-13.547c0.229-1.41,0.397-2.833,0.593-4.25
	c0.561-0.07,0.797,0.374,1.065,0.674c3.964,4.438,6.723,9.68,8.026,15.841c0.376,1.782,0.309,3.618-0.122,5.407
	c-0.261,1.087-0.67,2.177-1.56,2.684c-0.907,0.516-0.783,1.121-0.508,1.913c0.136,0.393,0.244,0.797,0.377,1.236
	c0.107-0.06,0.242-0.083,0.275-0.161c2.119-5.04,4.285-10.054,6.856-14.82c1.12-2.076,1.175-4.309,1.116-6.61
	c-0.015-0.58-0.288-0.679-0.684-0.776c-2.447-0.597-3.575-2.589-4.078-5.143c-1.025-5.2-0.282-10.253,1.084-15.244
	c0.41-1.495,0.838-2.981,1.485-4.372c0.224-0.481,0.407-1.003,0.879-1.245c2.702,5.232,5.405,10.44,6.029,16.637
	c0.352,3.488-0.462,6.461-2.796,8.792c-0.84,0.839-0.968,1.706-0.576,2.83c0.605-0.246,0.904-0.804,1.223-1.303
	c2.034-3.187,4.146-6.306,6.371-9.322c0.668-0.905,1.457-1.696,2.182-2.547c0.312-0.367,0.595-0.702,0.339-1.324
	c-1.157-2.803-0.625-5.454,0.721-7.957c1.737-3.23,4.358-5.407,7.106-7.403c2.042-1.484,4.198-2.743,6.345-4.02
	c0.483-0.288,0.857-0.407,0.773,0.481c-0.679,7.169-2.673,13.702-7.34,18.843c-1.53,1.686-3.413,2.586-5.635,1.781
	c-0.344-0.125-0.655-0.088-0.907,0.26c-2.524,3.498-5.188,6.867-7.595,10.475c-0.014,0.021,0.014,0.08,0.042,0.223
	c0.912-0.108,1.727-0.597,2.577-0.934c0.258-0.103,0.212-0.411,0.247-0.653c0.317-2.267,1.635-3.492,3.405-4.303
	c2.704-1.24,5.506-0.808,8.294-0.737c2.793,0.072,5.383,1.161,8.035,1.961c1.054,0.319,0.831,0.716,0.24,1.344
	c-1.569,1.67-3.412,2.873-5.32,3.936c-2.418,1.349-4.938,2.404-7.64,2.734c-2.587,0.318-5.03,0.05-6.694-2.649
	c-0.337-0.546-0.637-0.331-1.039-0.139c-2.416,1.155-4.437,2.667-5.778,5.455c-1.313,2.73-2.723,5.396-3.987,8.32
	c0.728,0.063,1.068-0.146,1.179-0.812c0.37-2.237,1.736-3.47,3.46-4.296c3.205-1.536,6.517-1.101,9.81-0.563
	c2.367,0.386,4.6,1.411,6.913,2.067c0.625,0.177,0.657,0.466,0.253,0.895c-0.46,0.489-0.944,0.969-1.473,1.354
	c-3.219,2.346-6.649,4.188-10.363,5.276c-1.644,0.482-3.347,0.409-5,0.074c-1.479-0.298-2.749-1.097-3.394-2.889
	c-1.763,1.333-3.174,2.95-3.923,5.138c-1.551,4.532-2.763,9.198-4.065,13.828c-0.041,0.146-0.056,0.302-0.109,0.602
	c0.898-0.342,1.446-0.757,1.289-1.82c-0.119-0.805,0.164-1.467,0.564-2.118c1.905-3.099,4.653-4.418,7.839-4.667
	c3.541-0.276,7.082-0.064,10.617,0.279c0.865,0.083,0.819,0.431,0.433,1.064c-0.946,1.552-2.175,2.789-3.483,3.916
	c-2.833,2.44-5.797,4.629-9.278,5.718c-2.061,0.644-4.013,0.422-5.686-1.206c-0.62-0.604-0.97-0.41-1.604,0.053
	c-1.529,1.114-1.54,2.886-1.777,4.553c-0.723,5.088-1.391,10.188-2.076,15.283c-0.022,0.164-0.003,0.334-0.003,0.596
	c0.718-0.39,1.11-0.784,0.847-1.759c-0.343-1.27,0.101-2.424,0.748-3.448c1.255-1.988,2.975-3.346,4.957-4.191
	c3.833-1.636,7.802-2.55,11.92-2.491c1.15,0.017,1.272,0.154,0.647,1.26c-2.44,4.311-5.376,8.109-9.226,10.882
	c-1.661,1.196-3.542,1.515-5.481,1.394c-0.635-0.04-1.25-0.198-1.823-0.551c-1.311-0.808-2.217-0.272-2.507,1.46
	c-0.021,0.124-0.02,0.253-0.02,0.38c0.02,5.243-0.217,10.497,0.63,15.697c0.122,0.747,0.181,1.507,0.278,2.329
	c0.438-0.285,0.605-0.618,0.414-1.211c-0.631-1.952-0.087-3.664,0.945-5.225c1.503-2.274,3.347-4.091,5.708-5.139
	c3.019-1.338,6.013-2.77,9.211-3.492c1.063-0.241,1.281,0.014,0.888,1.15c-1.097,3.173-2.7,6.033-4.509,8.729
	c-0.946,1.409-1.994,2.754-3.129,3.969c-2.161,2.312-4.69,3.189-7.6,2.025c-0.417-0.168-0.629-0.074-0.909,0.352
	c-0.704,1.066-0.686,2.225-0.421,3.389c0.925,4.08,1.391,8.291,2.667,12.271c0.135,0.42,0.33,0.817,0.595,1.229
	c-0.083-3.155,1.071-5.593,3.044-7.677c3.094-3.272,6.579-5.812,10.522-7.536c0.29-0.127,0.652-0.46,0.933-0.179
	c0.279,0.281,0.04,0.708-0.028,1.072c-0.811,4.413-1.96,8.685-4.093,12.539c-1.001,1.812-2.186,3.427-3.873,4.481
	c-1.256,0.789-2.578,1.138-3.982,0.662c-0.654-0.222-0.831,0.003-0.916,0.731c-0.117,0.995-0.057,1.911,0.294,2.844
	c1.643,4.364,3.628,8.527,5.674,12.656c0.107,0.215,0.258,0.404,0.59,0.913c-1.204-5.269,0.897-8.937,3.624-12.303
	c1.919-2.371,4.007-4.553,6.346-6.396c0.355-0.28,0.771-0.742,1.189-0.496c0.392,0.231,0.153,0.847,0.176,1.289
	c0.243,4.597-0.659,8.992-1.875,13.324c-0.644,2.291-1.911,4.1-3.551,5.575c-0.753,0.68-1.632,1.046-2.608,0.904
	c-0.978-0.145-1.15,0.451-1.053,1.349c0.068,0.64,0.291,1.215,0.549,1.784c1.697,3.728,4.188,6.774,6.6,9.885
	c0.605,0.782,1.081,1.727,1.996,2.138c0.308,0.642,0.848,1.051,1.267,1.579c-0.402-0.549-0.937-0.955-1.285-1.562
	c-1.865-4.722-0.726-8.979,1.606-13.026c1.51-2.62,3.029-5.239,5.017-7.446c0.264-0.293,0.55-0.748,0.908-0.65
	c0.436,0.117,0.292,0.702,0.345,1.1c0.341,2.549,0.849,5.09,0.965,7.649c0.166,3.685-0.029,7.375-1.665,10.723
	c-0.832,1.7-2.022,2.94-3.819,3.158c-0.591,0.068-0.631,0.337-0.502,0.915c0.354,1.591,1.162,2.877,2.237,3.866
	c3.528,3.246,6.833,6.814,10.671,9.616c0.087,0.062,0.199,0.084,0.313,0.131c0.294-0.603-0.114-0.678-0.428-0.88
	c-2.048-1.326-3.087-3.361-3.165-6.017c-0.178-6.053,2.067-11.243,4.573-16.331c0.189-0.384,0.44-0.902,0.873-0.902
	c0.507,0.003,0.524,0.645,0.668,1.04c1.783,4.875,3.213,9.846,2.924,15.225c-0.163,3.02-0.962,5.67-3.646,7.005
	c-0.566,0.285-0.34,0.647-0.206,1.016c0.464,1.265,1.32,2.164,2.307,2.857c2.854,2.002,5.874,3.657,8.91,5.272
	c1.404,0.747,2.832,1.436,4.327,2.19c0.037-0.737-0.169-1.055-0.695-1.144c-1.999-0.336-3.081-1.869-3.861-3.811
	c-0.996-2.479-0.927-5.1-0.824-7.73c0.151-3.839,0.961-7.51,2.151-11.096c0.271-0.817,0.556-0.636,0.936-0.233
	c1.021,1.087,1.722,2.436,2.375,3.819c1.587,3.366,2.975,6.83,3.542,10.628c0.291,1.943,0.175,3.879-0.489,5.736
	c-0.242,0.676-0.624,1.227-1.074,1.755c-0.305,0.36-1.13,0.318-0.896,1.061c0.254,0.809,0.563,1.662,1.431,1.981
	c2.056,0.756,4.082,1.627,6.157,2.302c3.066,1,6.089,2.269,9.358,2.349c-0.033-0.442-0.263-0.602-0.581-0.629
	c-3.028-0.246-4.611-2.419-5.59-5.395c-0.914-2.779-1.098-5.692-1.132-8.614c-0.027-2.326,0.054-4.654,0.133-6.979
	c0.014-0.42-0.19-1.064,0.259-1.242c0.372-0.148,0.752,0.291,1.079,0.564c1.642,1.368,2.943,3.112,4.148,4.95
	c1.811,2.758,3.484,5.624,4.287,8.983c0.574,2.403,0.636,4.79-1.133,6.729c-0.4,0.44-0.389,0.742,0.074,1.204
	c0.823,0.818,1.709,1.287,2.809,1.367c1.562,0.115,3.128,0.244,4.672,0.52c2.012,0.355,3.182-0.749,3.979-2.646
	c0.256-0.606,0.491-1.222,0.752-1.877c0.955,0.688,1.332,1.769,1.415,2.903c0.279,3.782-0.312,7.525-0.379,11.658
	c-0.855-1.242-1.18-2.373-1.574-3.433c-0.633-1.704-1.657-2.524-3.303-2.361c-1.72,0.168-3.401-0.358-5.105-0.514
	c-0.011,0.155-0.05,0.265-0.019,0.313c1.784,2.746,0.893,5.325-1.034,7.299c-1.938,1.981-3.913,3.926-5.768,6.006
	c-2.273,2.548-3.986,5.466-4.171,9.27c-0.039,0.804,0.185,1.588,0.078,2.471c-0.666-0.287-0.795-0.898-0.903-1.493
	c-0.683-3.755-0.301-7.283,1.618-10.548c1.206-2.051,2.645-3.877,4.042-5.747c1.102-1.476,1.893-3.136,2.297-5.021
	c0.457-2.129-0.271-3.478-2.126-4.093c-3.107-1.031-6.233-1.643-9.481-0.967c-0.613,0.127-0.943,0.267-0.932,1.056
	c0.053,3.52-1.684,5.745-4.243,7.308c-3.147,1.917-6.599,2.624-10.099,3.018c-1.889,0.213-3.796,0.227-5.697,0.281
	c-1.009,0.029-1.114-0.211-0.601-1.241c0.665-1.336,1.526-2.511,2.453-3.613c2.704-3.21,5.354-6.501,8.949-8.517
	c0.914-0.511,1.846-0.91,2.885-0.868c0.892-0.284,1.823,0.084,2.714-0.211c0.067,0.016,0.134,0.011,0.2-0.014
	c0.918-0.22,1.61,0.404,2.313,0.871c0.625,0.415,1.235,0.626,1.864,0.469C102.358,254.071,100.991,253.305,99.638,252.494z"/>
<path fill-rule="evenodd" clip-rule="evenodd" fill="#4B3615" d="M151.068,221.304c3.364,4.543,6.71,9.054,10.052,13.57
	c3.52,4.755,7.028,9.519,10.559,14.27c0.315,0.424,0.458,0.708,0.078,1.217c-6.849,9.188-13.674,18.396-20.506,27.596
	c-0.044,0.061-0.106,0.104-0.242,0.233c-1.665-2.232-3.322-4.45-4.973-6.677c-5.124-6.9-10.236-13.811-15.376-20.698
	c-0.516-0.693-0.677-1.151-0.071-1.962c6.614-8.856,13.171-17.753,19.746-26.636C150.555,221.919,150.799,221.639,151.068,221.304z"
	/>
<path fill-rule="evenodd" clip-rule="evenodd" fill="#F2E5BC" d="M84.202,267.535c-1.195,0.492-2.436,0.319-3.669,0.251
	C81.728,267.282,82.974,267.539,84.202,267.535z"/>
<g>
	<path fill-rule="evenodd" clip-rule="evenodd" fill="#4B3615" d="M90.593,204.263c1.924-5.177,3.807-10.244,5.691-15.312
		c0.116-0.311,0.224-0.627,0.369-0.924c0.155-0.316,0.184-0.789,0.667-0.785c0.478,0.003,0.541,0.465,0.675,0.788
		c2.055,4.96,4.097,9.924,6.146,14.886c0.152,0.368,0.22,0.791,0.577,1.061c1.383-4.666,2.782-9.314,4.13-13.979
		c0.517-1.787,0.431-1.863-1.341-2.295c-0.204-0.049-0.405-0.139-0.384-0.316c0.014-0.119,0.25-0.278,0.402-0.299
		c0.367-0.049,0.744-0.039,1.117-0.034c4.417,0.05,8.836,0.224,13.253,0c0.186-0.009,0.375-0.019,0.559,0.005
		c0.272,0.034,0.686-0.033,0.646,0.391c-0.032,0.346-0.407,0.223-0.649,0.252c-1.525,0.183-1.808,0.43-1.841,2.076
		c-0.071,3.543-0.081,7.088-0.099,10.63c-0.013,2.499-0.042,4.996,0.16,7.491c0.125,1.552,0.401,1.847,1.963,1.954
		c0.149,0.01,0.299,0.003,0.447,0.022c0.303,0.037,0.816-0.151,0.799,0.323c-0.015,0.403-0.513,0.33-0.84,0.319
		c-2.715-0.088-5.43-0.197-8.146-0.002c-0.323,0.022-0.819,0.057-0.814-0.334c0.006-0.446,0.516-0.295,0.827-0.305
		c0.966-0.03,1.465-0.444,1.591-1.474c0.155-1.265,0.166-2.527,0.167-3.793c0.006-4.665,0.006-9.329-0.002-13.995
		c-0.001-0.52-0.034-1.043-0.106-1.557c-0.122-0.865-0.676-1.26-1.523-1.353c-2.355-0.253-2.931,0.056-3.714,2.343
		c-2.196,6.422-4.347,12.86-6.534,19.285c-0.19,0.559-0.135,1.469-0.908,1.479c-0.737,0.009-0.781-0.894-1.008-1.438
		c-2.002-4.78-3.964-9.577-5.958-14.362c-0.119-0.286-0.13-0.679-0.529-0.838c-1.875,4.876-3.66,9.778-5.703,14.58
		c-0.188,0.441-0.407,0.87-0.618,1.3c-0.174,0.358-0.28,0.857-0.795,0.791c-0.424-0.055-0.479-0.514-0.593-0.857
		c-0.823-2.463-1.643-4.926-2.464-7.391c-1.374-4.117-2.735-8.237-4.128-12.348c-0.424-1.253-0.714-2.693-2.555-2.559
		c-0.181,0.014-0.28-0.104-0.263-0.271c0.022-0.213,0.182-0.332,0.379-0.338c0.521-0.015,1.047-0.049,1.563,0.003
		c1.45,0.142,2.896,0.147,4.345,0.005c0.48-0.046,0.968-0.028,1.452-0.025c0.232,0,0.492,0.092,0.51,0.332
		c0.023,0.302-0.268,0.313-0.488,0.299c-1.273-0.079-1.203,0.758-0.991,1.557c1.302,4.908,2.806,9.76,4.333,14.603
		C90.399,203.958,90.472,204.048,90.593,204.263z"/>
	<path fill-rule="evenodd" clip-rule="evenodd" fill="#4B3615" d="M158.301,193.47c0,1.233-0.02,2.328,0.005,3.423
		c0.073,3.353,0.153,6.707,0.248,10.061c0.056,1.995,0.569,2.766,1.892,2.908c0.297,0.032,0.598,0.008,0.895,0.023
		c0.149,0.009,0.303,0.044,0.329,0.233c0.033,0.236-0.133,0.322-0.315,0.374c-0.104,0.029-0.22,0.03-0.331,0.025
		c-2.382-0.088-4.762-0.142-7.144-0.002c-0.284,0.017-0.697,0.048-0.671-0.363c0.029-0.427,0.462-0.257,0.729-0.274
		c1.559-0.106,1.857-0.406,1.941-1.964c0.213-4.022,0.173-8.049,0.233-12.074c0.042-2.721,0.104-5.441,0.171-8.16
		c0.009-0.355-0.14-0.829,0.269-1.015c0.484-0.222,0.7,0.269,0.969,0.546c5.373,5.545,10.741,11.092,16.111,16.638
		c0.145,0.148,0.3,0.285,0.558,0.53c0-2.564,0.022-4.969-0.009-7.375c-0.027-2.159-0.136-4.317-0.174-6.477
		c-0.035-2.167-0.504-2.93-2.588-2.832c-0.202,0.008-0.509,0.07-0.527-0.244c-0.018-0.357,0.31-0.385,0.561-0.384
		c0.671,0.003,1.344-0.005,2.009,0.073c1.604,0.187,3.197-0.059,4.797-0.084c0.324-0.008,0.826-0.057,0.826,0.33
		c0.005,0.456-0.509,0.291-0.817,0.311c-0.942,0.053-1.482,0.473-1.653,1.464c-0.133,0.784-0.122,1.562-0.136,2.34
		c-0.102,5.892-0.178,11.781-0.26,17.673c-0.004,0.298,0.018,0.6-0.018,0.895c-0.096,0.813-0.505,0.946-1.12,0.45
		c-0.375-0.303-0.727-0.643-1.064-0.988c-5.125-5.213-10.48-10.202-15.304-15.708C158.625,193.721,158.508,193.645,158.301,193.47z"
		/>
	<path fill-rule="evenodd" clip-rule="evenodd" fill="#4B3615" d="M146.674,204.597c-0.125-5.096-0.211-9.891-0.38-14.683
		c-0.063-1.783-0.509-2.109-2.363-2.219c-0.263-0.016-0.523-0.101-0.841-0.165c0.349-0.571,0.787-0.494,1.18-0.471
		c2.043,0.116,4.084,0.195,6.129,0.005c0.356-0.031,0.962-0.188,0.97,0.379c0.008,0.439-0.54,0.216-0.84,0.252
		c-1.106,0.133-1.584,0.675-1.614,1.998c-0.092,4.173-0.161,8.346-0.246,12.52c-0.049,2.495-0.101,4.989-0.177,7.482
		c-0.012,0.371,0.207,0.888-0.327,1.068c-0.465,0.155-0.747-0.238-1.032-0.522c-5.344-5.31-10.771-10.534-15.843-16.109
		c-0.188-0.208-0.384-0.407-0.537-0.567c0,2.172-0.016,4.314,0.004,6.455c0.024,2.533-0.014,5.069,0.229,7.596
		c0.172,1.783,0.525,2.135,2.354,2.255c0.293,0.021,0.722-0.05,0.708,0.327c-0.011,0.311-0.43,0.336-0.738,0.323
		c-2.38-0.106-4.76-0.132-7.14-0.002c-0.273,0.016-0.595-0.01-0.614-0.324c-0.022-0.373,0.329-0.301,0.582-0.323
		c1.793-0.164,2.067-0.4,2.134-2.262c0.093-2.607,0.107-5.217,0.142-7.826c0.055-3.988,0.1-7.979,0.146-11.967
		c0.005-0.442-0.069-0.996,0.389-1.182c0.433-0.176,0.704,0.305,0.975,0.602c4.556,4.98,9.397,9.686,14.081,14.543
		C144.832,202.636,145.643,203.507,146.674,204.597z"/>
	<path fill-rule="evenodd" clip-rule="evenodd" fill="#4B3615" d="M191.716,210.543c-2.902,0-5.802-0.385-8.706-0.029
		c-0.291,0.036-0.598,0.013-0.889-0.036c-0.117-0.019-0.286-0.17-0.302-0.277c-0.029-0.212,0.148-0.279,0.354-0.33
		c2.004-0.501,2.077-0.589,2.13-2.611c0.158-5.813,0.165-11.628,0.025-17.443c-0.038-1.556-0.5-2.015-2.08-2.124
		c-0.296-0.021-0.838,0.213-0.849-0.225c-0.014-0.591,0.596-0.423,0.955-0.404c3.351,0.183,6.706,0.151,10.059,0.168
		c1.049,0.006,2.086-0.073,3.108-0.268c0.415-0.079,0.687-0.121,0.64,0.385c-0.117,1.258-0.269,2.515-0.406,3.77
		c-0.021,0.181-0.021,0.393-0.28,0.395c-0.242,0.004-0.258-0.191-0.315-0.374c-0.653-1.999-0.878-2.192-3.006-2.274
		c-1.225-0.047-2.789-0.457-3.584,0.131c-0.751,0.557-0.189,2.221-0.225,3.398c-0.04,1.304,0.016,2.611-0.022,3.916
		c-0.016,0.588,0.089,0.867,0.771,0.838c1.415-0.06,2.835-0.033,4.252-0.039c0.647,0,1.256-0.098,1.731-0.601
		c0.12-0.128,0.251-0.314,0.464-0.19c0.189,0.107,0.16,0.312,0.143,0.497c-0.127,1.368-0.251,2.737-0.38,4.107
		c-0.021,0.214,0.007,0.504-0.309,0.481c-0.273-0.02-0.278-0.304-0.327-0.519c-0.439-1.844-0.624-1.985-2.532-2.012
		c-1.043-0.014-2.085-0.026-3.127-0.085c-0.551-0.031-0.69,0.172-0.687,0.704c0.027,2.386-0.013,4.773,0.022,7.159
		c0.022,1.409,0.629,2.01,2.071,2.095c1.004,0.059,2.015,0.048,3.021,0.014c1.671-0.055,2.3-0.588,2.75-2.21
		c0.08-0.291,0.036-0.787,0.487-0.715c0.38,0.062,0.206,0.509,0.19,0.771c-0.062,0.964-0.144,1.93-0.277,2.886
		c-0.1,0.711-0.489,1.101-1.293,1.066C194.104,210.506,192.908,210.543,191.716,210.543z"/>
	<path fill-rule="evenodd" clip-rule="evenodd" fill="#4B3615" d="M223.001,209.871c-1.493-0.092-2.675-0.808-3.71-1.833
		c-2.044-2.026-3.744-4.343-5.553-6.566c-0.471-0.578-1.246-1.145-1.295-1.763c-0.054-0.645,0.966-0.997,1.426-1.568
		c0.188-0.23,0.418-0.426,0.601-0.662c1.558-2.015,2.401-4.194,1.435-6.737c-0.946-2.499-3.004-3.313-5.45-3.534
		c-3.454-0.309-6.921,0.231-10.373-0.143c-0.307-0.033-0.787-0.093-0.745,0.399c0.038,0.419,0.482,0.212,0.745,0.229
		c1.748,0.11,2.133,0.381,2.18,2.104c0.075,2.757,0.02,5.519,0.02,8.28c0.016,0,0.031,0,0.047,0c0,1.604,0.013,3.209-0.005,4.813
		c-0.02,1.714-0.042,3.428-0.122,5.139c-0.044,0.99-0.324,1.856-1.595,1.852c-0.294,0-0.829-0.183-0.812,0.291
		c0.018,0.51,0.569,0.33,0.911,0.343c1.56,0.058,3.11-0.257,4.682-0.093c1.108,0.116,2.232,0.068,3.351,0.096
		c0.251,0.006,0.479-0.106,0.488-0.343c0.009-0.281-0.249-0.315-0.491-0.304c-0.187,0.009-0.373,0.001-0.56-0.011
		c-1.5-0.101-1.772-0.387-1.957-1.861c-0.27-2.153-0.158-4.316-0.185-6.476c-0.005-0.239-0.094-0.511,0.235-0.672
		c0.725-0.356,3.232,0.259,3.722,0.933c1.66,2.288,3.14,4.71,5.081,6.787c0.773,0.828,1.638,1.517,2.784,1.755
		c1.7,0.351,3.422,0.141,5.133,0.189c0.258,0.007,0.568-0.009,0.537-0.379C223.501,209.831,223.219,209.885,223.001,209.871z
		 M206.399,199.077c-0.424-0.226-0.371-0.595-0.371-0.964c0-1.455,0-2.91,0-4.366c0-1.38,0.029-2.762-0.013-4.14
		c-0.021-0.662,0.222-0.925,0.873-1.002c3.07-0.363,5.515,1.67,5.644,4.77c0.049,1.223,0.082,2.444-0.418,3.625
		C211.192,199.187,208.479,200.188,206.399,199.077z"/>
</g>
<path fill-rule="evenodd" clip-rule="evenodd" fill="#616262" d="M81.423,304.684c1.146,0.163,2.293,0.47,3.439,0.469
	c44.567-0.018,89.134-0.063,133.701-0.105c11.716,0.074,23.434,0.135,35.151,0.229c4.09,0.032,7.606,0.987,8.483,5.776
	c0.687,17.627,0.116,35.26,0.297,52.889c0.024,2.404-1.233,3.679-3.526,4.038c-1.814,0.285-3.647,0.309-5.479,0.31
	c-68.902,0.031-137.805,0.043-206.708-0.045c-3.011-0.004-6.467,0.911-8.711-2.312c-0.026-17.45-0.078-34.899-0.065-52.35
	c0.004-5.877,2.185-8.194,8.084-8.275c9.638-0.134,19.278-0.035,28.918-0.059C77.158,305.244,79.339,305.479,81.423,304.684z"/>
<path fill-rule="evenodd" clip-rule="evenodd" fill="#1F2130" d="M38.071,365.933c73.117,0.027,146.234,0.027,219.351,0.153
	c3.97,0.007,4.661-1.62,4.646-5.078c-0.068-16.651,0.066-33.304,0.13-49.955c1.129,1.834,0.772,3.88,0.775,5.853
	c0.025,14.819,0.152,29.642-0.07,44.458c-0.066,4.392,1.369,5.738,5.733,5.72c14.354-0.061,14.383,0.093,14.344,14.416
	c-0.028,10.622,1.088,9.495-9.747,9.497c-82.591,0.021-165.182,0.012-247.773,0.011c-7.462,0-7.465-0.007-7.471-7.295
	c-0.002-3.33-0.007-6.66,0.013-9.99c0.027-4.511,2.353-6.537,6.82-6.773C29.241,366.714,33.797,368.042,38.071,365.933z"/>
<linearGradient id="SVGID_2_" gradientUnits="userSpaceOnUse" x1="206.7861" y1="109.7563" x2="90.7456" y2="107.0263">
	<stop  offset="0" style="stop-color:#F9ED21"/>
	<stop  offset="1" style="stop-color:#A88F31"/>
</linearGradient>
<path fill-rule="evenodd" clip-rule="evenodd" fill="url(#SVGID_2_)" d="M217.733,48.454c-4.981-0.022-9.962-0.08-14.94,0.036
	c-1.596,0.037-1.973-0.499-1.745-1.92c0.518-3.228,0.296-6.492,0.428-9.738c0.048-1.188-0.238-1.599-1.511-1.598
	c-32.474,0.03-64.946,0.028-97.419-0.017c-1.407-0.001-1.553,0.539-1.595,1.726c-0.113,3.265,0.357,6.493,0.461,9.743
	c0.043,1.357-0.299,1.824-1.735,1.799c-4.912-0.087-9.829,0.043-14.741-0.066c-2.396-0.054-4.091,0.748-5.073,2.952
	c0,1.992,0,3.985,0,5.978c0.349,0.187,0.336,0.532,0.374,0.855c2.382,20.797,12.666,36.522,30.774,46.883
	c3.978,2.275,6.856,4.893,9.209,8.836c5.542,9.287,12.525,17.246,23.269,20.857c0.713,0.24,0.954,0.665,0.962,1.452
	c0.022,2.202-0.203,4.387-0.559,6.536c-2.155,13.021-8.504,23.506-19.162,31.345c-0.516,0.379-1.155,0.669-1.094,1.513
	c0.132,1.846-0.248,3.713,0.234,5.543c0.748,1.342,2.076,1.005,3.208,1.014c7.827,0.061,15.654,0.028,23.481,0.029
	c8.226,0,16.452,0.026,24.676-0.027c1.138-0.006,2.442,0.341,3.291-0.87c1.195-3.65,0.515-6.087-2.179-8.256
	c-11.634-9.357-17.637-21.547-18.321-36.427c-0.055-1.142,0.296-1.662,1.339-1.972c2.543-0.753,4.88-1.966,7.088-3.425
	c7.953-5.257,13.462-12.65,17.99-20.847c0.916-1.663,2.104-2.638,3.753-3.494c21.674-11.242,33.246-29.024,34.342-53.486
	C222.702,49.755,221.365,48.469,217.733,48.454z M92.633,74.418c-2.395-5.13-3.906-10.51-4.519-16.156
	c-0.167-1.545,0.323-2.063,1.786-2.048c3.451,0.034,6.909,0.136,10.351-0.042c1.742-0.09,2.155,0.731,2.281,2.103
	c0.394,4.271,1.183,8.478,1.964,12.69c1.536,8.289,3.763,16.38,6.642,24.299c0.063,0.174,0.106,0.355,0.309,1.042
	C102.941,90.539,96.792,83.323,92.633,74.418z M214.479,57.987c-2.061,15.978-9.639,28.631-22.817,37.914
	c-0.084,0.06-0.233,0.023-0.515,0.043c1.983-5.536,3.706-11.082,5.104-16.729c1.772-7.167,2.966-14.434,3.924-21.742
	c0.14-1.064,0.438-1.286,1.422-1.27c3.647,0.055,7.297,0.034,10.944,0.017C213.762,56.214,214.678,56.453,214.479,57.987z"/>
</svg>
