<?xml version="1.0" encoding="utf-8"?>
<!-- Generator: Adobe Illustrator 16.0.0, SVG Export Plug-In . SVG Version: 6.00 Build 0)  -->
<!DOCTYPE svg PUBLIC "-//W3C//DTD SVG 1.1//EN" "http://www.w3.org/Graphics/SVG/1.1/DTD/svg11.dtd">
<svg version="1.1" id="Layer_1" xmlns="http://www.w3.org/2000/svg" xmlns:xlink="http://www.w3.org/1999/xlink" x="0px" y="0px"
	 width="300px" height="300px" viewBox="0 0 300 300" enable-background="new 0 0 300 300" xml:space="preserve">
<radialGradient id="SVGID_1_" cx="150" cy="149.9998" r="150" gradientUnits="userSpaceOnUse">
	<stop  offset="0" style="stop-color:#0B98D8"/>
	<stop  offset="1" style="stop-color:#0093D7"/>
</radialGradient>
<circle fill="url(#SVGID_1_)" cx="150" cy="150" r="150"/>
<g>
	<radialGradient id="SVGID_2_" cx="149.2773" cy="149.2747" r="142.1375" gradientUnits="userSpaceOnUse">
		<stop  offset="0" style="stop-color:#0B98D8"/>
		<stop  offset="1" style="stop-color:#0093D7"/>
	</radialGradient>
	<path fill="url(#SVGID_2_)" d="M291.415,135.063c0,9.951,0,19.899,0,29.85c-1.533,3.978-0.051,8.424-1.915,12.349
		c-3.404,2.724-5.802,0.098-7.917-1.852c-12.136-11.18-24.967-21.67-35.256-34.72c-1.692-2.147-4.122-3.08-6.371-4.345
		c-2.424-1.651-3.854-4.164-5.421-6.505c-5.286-7.904-12.467-13.45-20.942-17.561c-3.563-1.729-7.62-2.841-9.876-6.598
		c-6.376-4.79-3.941-12.044-5.164-18.272c-0.744-5.191-4.391-7.506-8.88-9.041c-8.089-2.764-16.507-4.173-24.907-5.2
		c-22.862-2.794-45.648-1.87-68.236,2.792c-3.006,0.621-5.855,1.852-8.784,2.774c-4.803,1.514-7.555,4.553-7.506,9.771
		c-1.305,4.311,0.331,8.762-0.638,13.084c0.197,7.094,0.676,14.184,0.075,21.273c-1.091,4.075,1.116,7.995,0.593,12.041
		c-1.111,7.362-0.196,14.72,0.096,22.079c-1.655,3.998,0.182,8.052-0.152,12.069c-0.335,7.504-2.043,15.146,2.306,22.159
		c1.466,5.938,6.477,9.24,10.41,13.084c20.272,19.807,38.802,41.3,59.278,60.893c5.819,5.568,10.606,12.039,16.14,17.854
		c1.848,1.941,4.18,4.155,2.114,7.401c-2.255,0.818-4.815-0.563-6.971,0.968c-9.949,0-19.899,0-29.848,0
		c-2.404-1.488-5.068-0.539-7.599-0.755c-36.018-3.056-63.894-20.969-87.136-47.475c-13.143-14.987-22.302-32.154-28.128-51.121
		c-2.706-8.812-1.947-18.162-3.64-27.151c0-10.424,0-20.847,0-31.27c1.49-2.404,0.54-5.068,0.753-7.6
		c3.056-36.016,20.97-63.892,47.476-87.136c14.988-13.142,32.155-22.301,51.121-28.127c8.811-2.706,18.163-1.946,27.152-3.641
		c9.949,0,19.899,0,29.848,0c3.322,1.709,6.939,0.603,10.408,1.01c47.064,5.522,79.301,32.035,102.68,71.591
		C286.723,96.901,290.354,115.584,291.415,135.063z"/>
	<path fill="#005C7C" d="M288.409,177.608c-3.601,23.746-14.076,44.417-29.048,62.798c-19.457,23.892-44.381,39.569-74.26,47.191
		c-4.748,1.21-9.559,2.522-14.57,2.221c-5.854-6.473-11.561-13.09-17.59-19.397c-23.189-24.255-46.491-48.402-69.711-72.629
		c-1.219-1.271-3.28-2.203-2.663-4.598c2.923-2.055,5.805-1.056,8.765,0.002c10.094,3.604,20.709,4.35,31.235,5.556
		c4.572,0.524,6.173-1.213,4.225-5.664c-0.849-1.942-1.957-3.846-2.325-5.922c-0.875-4.953-4.042-6.281-8.612-6.491
		c-9.21-0.421-18.258-2.113-27.095-4.714c-3.792-1.114-7.954-2.153-8.775-7.106c-1.57-3.737-1.908-7.481-0.094-11.246
		c3.294-2.218,6.445-0.452,9.456,0.591c8.278,2.864,16.68,4.729,25.452,5.464c4.891,0.41,6.484-1.344,6.541-5.698
		c0.011-0.704,0.068-1.413,0.174-2.111c1.334-8.724,1.321-8.563-7.775-9.364c-8.438-0.746-16.836-2.037-24.897-4.717
		c-3.678-1.222-7.949-2.177-8.842-7.083c-1.905-3.569-1.077-7.405-1.095-11.158c2.971-2.336,5.846-0.912,8.657,0.308
		c10.558,4.589,21.75,5.941,33.081,6.765c5.752,0.418,10.059-1.331,12.888-6.635c1.727-3.235,4.464-5.871,7.072-9.902
		c-10.109-0.018-19.219-0.595-28.319-1.423c-8.773-0.798-17.188-2.892-25.6-5.186c-3.556-0.97-6.365-3.053-7.872-6.582
		c0.421-4.348-1.134-8.878,1.205-13.047c2.013-1.278,4.122-1.048,6.108-0.115c8.7,4.082,18.053,5.507,27.426,6.782
		c23.877,3.248,47.575,2.038,71.174-2.755c6.434-1.307,11.771-6.271,18.791-5.341c1.094,6.491-1.586,13.919,4.74,19.112
		c-2.41,2.874-5.496,2.01-8.552,1.623c-35.089-4.449-64.04,21.127-64.535,56.509c-0.425,30.449,20.404,54.227,49.144,57.659
		c30.929,3.69,57.483-17.209,62.305-47.208c1.711-10.659,0.533-20.664-2.977-30.619c-1.037-2.949-2.156-5.835-0.107-8.793
		c3.181-0.282,4.301,2.544,6.018,4.235C260.91,152.087,274.145,165.389,288.409,177.608z"/>
	<path fill="#FFFFFF" d="M241.531,134.68c8.683,18.516,9.984,37.256,1.209,56.08c-12.196,26.158-40.811,39.614-68.441,32.419
		c-27.123-7.062-46.325-34.345-44.091-62.643c3.053-38.644,35.431-63.135,73.229-55.399c0.926,0.188,1.875,0.251,2.815,0.371
		C221.542,110.967,233.227,120.779,241.531,134.68z"/>
	<path fill="#FFFFFF" d="M201.516,86.397c-9.271,7.973-20.851,9.354-32.228,10.842c-26.119,3.415-52.134,3.066-77.856-3.377
		c-4.832-1.21-9.376-3.052-13.413-6.032c-3.711-5.575,0.017-8.285,4.282-10.372c8.797-4.305,18.356-5.91,27.967-7.013
		c25.475-2.924,50.83-2.675,75.896,3.496c3.908,0.962,7.645,2.363,11.126,4.404C200.367,80.148,202.443,82.487,201.516,86.397z"/>
	<path fill="#FEFEFE" d="M76.811,100.874c21.765,10.217,45.223,9.728,69.605,10.347c-6.679,6.832-12.229,13.154-16.021,20.774
		c-1.367,2.744-3.989,2.046-6.273,1.997c-16.43-0.352-32.416-2.757-47.217-10.463C76.063,115.98,76.148,108.428,76.811,100.874z"/>
	<path fill="#FEFEFF" d="M77.985,168.854c11.549,6.115,24.158,8.13,36.932,8.694c5.982,0.264,9.396,1.354,10.587,8.05
		c0.959,5.398,3.979,10.434,6.339,16.258c-17.837,0.16-34.988-1.482-51.271-8.658c-2.948-1.849-4.893-4.077-4.227-7.985
		C77.265,179.809,74.738,174.044,77.985,168.854z"/>
	<path fill="#FEFEFE" d="M78,134.688c12.856,6.664,26.827,8.422,40.984,8.961c4.882,0.187,6.772,1.037,4.956,6.44
		c-1.32,3.929-1.732,8.382-1.518,12.549c0.251,4.924-1.917,5.324-5.855,4.877c-13.358-1.524-26.566-3.521-38.673-9.904
		C75.54,149.956,75.281,142.314,78,134.688z"/>
	<path fill="#005C7C" d="M191.104,205.957c-3.571,0.599-5.636-0.231-5.008-3.92c0.766-4.507-1.182-6.408-5.617-6.443
		c-1.615-0.015-3.244-0.586-4.838-1.019c-6.338-1.724-7.979-7.417-3.951-12.729c1.771-2.333,2.94-0.2,4.156,0.206
		c4.736,1.589,9.491,3.128,14.527,2.448c3.27-0.439,6.684-1.223,7.417-5.36c0.708-4.014-1.714-6.21-4.877-7.702
		c-3.827-1.809-7.81-3.289-11.662-5.044c-6.968-3.171-11.755-8.168-11.581-16.24c0.176-8.216,4.739-13.818,12.339-16.384
		c3.736-1.262,4.853-3.199,4.339-6.682c-0.574-3.916,1.373-4.724,4.903-4.718c3.47,0.007,5.558,0.67,4.894,4.645
		c-0.713,4.26,1.676,4.855,5.271,5.292c8.841,1.075,9.244,2.047,7.612,9.084c-0.965,4.159-2.662,4.652-6.324,3.028
		c-3.234-1.433-6.871-1.727-10.436-1.46c-3.133,0.236-6.393,0.789-7.32,4.41c-0.965,3.765,1.811,5.663,4.617,7.045
		c3.799,1.871,7.816,3.291,11.646,5.109c7.333,3.481,12.369,8.644,12.028,17.455c-0.344,8.896-5.178,14.785-13.312,17.196
		c-4.534,1.346-4.716,3.858-4.465,7.289C195.727,205.02,194.811,207.184,191.104,205.957z"/>
</g>
<radialGradient id="SVGID_3_" cx="-84.3149" cy="100.8738" r="44.3711" gradientUnits="userSpaceOnUse">
	<stop  offset="0" style="stop-color:#0B98D8"/>
	<stop  offset="1" style="stop-color:#0093D7"/>
</radialGradient>
<rect x="-132.664" y="60.874" fill="url(#SVGID_3_)" width="96.697" height="80"/>
</svg>
