<?xml version="1.0" encoding="utf-8"?>
<!-- Generator: Adobe Illustrator 16.0.0, SVG Export Plug-In . SVG Version: 6.00 Build 0)  -->
<!DOCTYPE svg PUBLIC "-//W3C//DTD SVG 1.1//EN" "http://www.w3.org/Graphics/SVG/1.1/DTD/svg11.dtd">
<svg version="1.1" id="Layer_1" xmlns="http://www.w3.org/2000/svg" xmlns:xlink="http://www.w3.org/1999/xlink" x="0px" y="0px"
	 width="300px" height="300px" viewBox="0 0 300 300" enable-background="new 0 0 300 300" xml:space="preserve">
<circle fill="#3466A0" cx="150" cy="150" r="150"/>
<g>
	<path fill-rule="evenodd" clip-rule="evenodd" fill="#3466A0" d="M291.415,135.063c0,9.951,0,19.9,0,29.85
		c-1.533,3.977-0.051,8.424-1.915,12.348c-3.405,2.724-5.802,0.098-7.917-1.851c-12.136-11.18-24.967-21.67-35.256-34.72
		c-1.692-2.147-4.122-3.08-6.371-4.345c-2.424-1.651-3.854-4.164-5.421-6.504c-5.286-7.905-12.467-13.451-20.942-17.561
		c-3.563-1.729-7.621-2.841-9.876-6.598c-6.376-4.79-3.942-12.044-5.164-18.272c-0.744-5.192-4.391-7.506-8.88-9.041
		c-8.089-2.764-16.507-4.173-24.908-5.2c-22.861-2.794-45.648-1.87-68.235,2.792c-3.006,0.621-5.855,1.851-8.784,2.774
		c-4.803,1.514-7.555,4.553-7.506,9.772c-1.305,4.31,0.331,8.761-0.638,13.084c0.197,7.093,0.676,14.183,0.075,21.273
		c-1.091,4.075,1.116,7.995,0.593,12.041c-1.111,7.362-0.196,14.72,0.096,22.079c-1.655,3.998,0.182,8.052-0.152,12.069
		c-0.335,7.504-2.043,15.147,2.306,22.16c1.466,5.937,6.477,9.24,10.41,13.084c20.272,19.806,38.802,41.299,59.278,60.892
		c5.82,5.569,10.606,12.039,16.14,17.854c1.848,1.941,4.179,4.155,2.114,7.401c-2.255,0.818-4.815-0.563-6.971,0.968
		c-9.949,0-19.899,0-29.848,0c-2.404-1.488-5.068-0.539-7.599-0.755c-36.018-3.056-63.894-20.969-87.136-47.475
		c-13.143-14.987-22.302-32.154-28.128-51.121c-2.706-8.811-1.947-18.162-3.64-27.151c0-10.424,0-20.847,0-31.27
		c1.49-2.404,0.54-5.068,0.753-7.599c3.056-36.016,20.97-63.892,47.476-87.136c14.988-13.142,32.155-22.301,51.121-28.127
		c8.811-2.706,18.163-1.946,27.152-3.641c9.949,0,19.899,0,29.848,0c3.323,1.709,6.939,0.603,10.408,1.01
		c47.065,5.523,79.301,32.035,102.68,71.591C286.722,96.901,290.354,115.584,291.415,135.063z"/>
	<path fill-rule="evenodd" clip-rule="evenodd" fill="#254B76" d="M288.409,177.608c-3.6,23.746-14.076,44.417-29.047,62.798
		c-19.457,23.892-44.382,39.569-74.261,47.191c-4.748,1.21-9.558,2.523-14.57,2.221c-5.854-6.473-11.561-13.09-17.589-19.397
		c-23.19-24.255-46.492-48.403-69.712-72.629c-1.219-1.271-3.28-2.203-2.663-4.598c2.923-2.055,5.805-1.056,8.765,0.002
		c10.094,3.604,20.709,4.35,31.235,5.556c4.572,0.524,6.173-1.213,4.225-5.664c-0.849-1.943-1.957-3.846-2.325-5.922
		c-0.875-4.953-4.042-6.282-8.612-6.491c-9.21-0.421-18.258-2.114-27.095-4.714c-3.792-1.115-7.954-2.154-8.775-7.107
		c-1.57-3.737-1.908-7.481-0.094-11.246c3.294-2.218,6.445-0.452,9.456,0.591c8.278,2.864,16.68,4.729,25.452,5.464
		c4.891,0.41,6.484-1.344,6.541-5.698c0.011-0.705,0.068-1.414,0.174-2.112c1.334-8.723,1.321-8.562-7.775-9.364
		c-8.438-0.746-16.836-2.037-24.897-4.717c-3.678-1.222-7.949-2.177-8.842-7.083c-1.905-3.569-1.077-7.405-1.095-11.158
		c2.971-2.336,5.846-0.912,8.657,0.308c10.558,4.588,21.75,5.941,33.081,6.764c5.752,0.418,10.059-1.331,12.888-6.635
		c1.727-3.235,4.464-5.871,7.072-9.902c-10.109-0.017-19.219-0.595-28.319-1.423c-8.773-0.798-17.188-2.891-25.6-5.185
		c-3.556-0.97-6.365-3.053-7.872-6.582c0.421-4.348-1.134-8.878,1.205-13.047c2.013-1.279,4.122-1.048,6.108-0.115
		c8.7,4.082,18.053,5.506,27.426,6.782c23.877,3.248,47.575,2.038,71.174-2.755c6.433-1.307,11.771-6.271,18.791-5.341
		c1.094,6.491-1.586,13.919,4.74,19.112c-2.41,2.874-5.496,2.01-8.552,1.623c-35.089-4.449-64.04,21.127-64.535,56.509
		c-0.425,30.449,20.404,54.227,49.144,57.659c30.928,3.691,57.483-17.209,62.304-47.208c1.711-10.659,0.534-20.664-2.976-30.619
		c-1.038-2.949-2.157-5.835-0.108-8.793c3.181-0.282,4.301,2.544,6.018,4.236C260.91,152.087,274.145,165.389,288.409,177.608z"/>
	<path fill-rule="evenodd" clip-rule="evenodd" fill="#FFFFFF" d="M241.531,134.68c8.683,18.516,9.985,37.256,1.209,56.08
		c-12.196,26.159-40.81,39.615-68.441,32.419c-27.123-7.061-46.325-34.344-44.091-62.642c3.053-38.644,35.431-63.135,73.229-55.4
		c0.926,0.189,1.876,0.251,2.816,0.372C221.542,110.967,233.227,120.779,241.531,134.68z"/>
	<path fill-rule="evenodd" clip-rule="evenodd" fill="#FFFFFF" d="M201.515,86.397c-9.27,7.973-20.85,9.355-32.227,10.842
		c-26.119,3.415-52.134,3.066-77.856-3.377c-4.832-1.21-9.376-3.052-13.413-6.032c-3.711-5.575,0.017-8.285,4.282-10.372
		c8.797-4.305,18.356-5.91,27.967-7.013c25.475-2.924,50.83-2.675,75.896,3.496c3.908,0.962,7.645,2.363,11.126,4.404
		C200.367,80.148,202.444,82.487,201.515,86.397z"/>
	<path fill-rule="evenodd" clip-rule="evenodd" fill="#FEFEFE" d="M76.811,100.874c21.765,10.217,45.223,9.727,69.605,10.346
		c-6.679,6.832-12.229,13.155-16.021,20.775c-1.367,2.744-3.989,2.046-6.273,1.997c-16.43-0.352-32.416-2.757-47.217-10.463
		C76.063,115.98,76.148,108.428,76.811,100.874z"/>
	<path fill-rule="evenodd" clip-rule="evenodd" fill="#FEFEFF" d="M77.985,168.854c11.549,6.115,24.158,8.13,36.932,8.695
		c5.982,0.263,9.396,1.354,10.587,8.049c0.959,5.399,3.979,10.434,6.339,16.258c-17.837,0.16-34.988-1.482-51.271-8.658
		c-2.948-1.849-4.893-4.077-4.227-7.985C77.265,179.809,74.738,174.044,77.985,168.854z"/>
	<path fill-rule="evenodd" clip-rule="evenodd" fill="#FEFEFE" d="M78,134.688c12.856,6.664,26.827,8.422,40.984,8.961
		c4.882,0.187,6.772,1.037,4.956,6.441c-1.32,3.928-1.732,8.381-1.518,12.548c0.251,4.924-1.917,5.325-5.855,4.877
		c-13.358-1.524-26.566-3.52-38.673-9.904C75.54,149.956,75.281,142.314,78,134.688z"/>
	<path fill-rule="evenodd" clip-rule="evenodd" fill="#254B76" d="M191.103,205.957c-3.571,0.598-5.635-0.232-5.007-3.92
		c0.765-4.507-1.182-6.408-5.617-6.444c-1.616-0.014-3.244-0.585-4.838-1.018c-6.338-1.724-7.979-7.417-3.951-12.729
		c1.771-2.333,2.94-0.2,4.155,0.206c4.737,1.589,9.492,3.128,14.528,2.449c3.27-0.44,6.684-1.223,7.417-5.361
		c0.708-4.013-1.714-6.21-4.877-7.702c-3.827-1.808-7.809-3.289-11.662-5.044c-6.968-3.171-11.755-8.168-11.581-16.24
		c0.176-8.216,4.739-13.818,12.339-16.384c3.736-1.261,4.853-3.199,4.339-6.681c-0.574-3.916,1.373-4.724,4.903-4.718
		c3.47,0.007,5.557,0.67,4.893,4.644c-0.712,4.26,1.677,4.856,5.271,5.292c8.841,1.076,9.244,2.047,7.612,9.084
		c-0.964,4.16-2.662,4.653-6.324,3.029c-3.234-1.433-6.871-1.727-10.436-1.46c-3.132,0.236-6.392,0.789-7.32,4.41
		c-0.964,3.765,1.811,5.663,4.617,7.045c3.799,1.871,7.817,3.291,11.646,5.109c7.333,3.482,12.369,8.644,12.028,17.455
		c-0.344,8.896-5.178,14.785-13.311,17.197c-4.535,1.345-4.716,3.858-4.465,7.289C195.727,205.02,194.81,207.184,191.103,205.957z"
		/>
</g>
</svg>
