<?xml version="1.0" encoding="utf-8"?>
<!-- Generator: Adobe Illustrator 16.0.0, SVG Export Plug-In . SVG Version: 6.00 Build 0)  -->
<!DOCTYPE svg PUBLIC "-//W3C//DTD SVG 1.1//EN" "http://www.w3.org/Graphics/SVG/1.1/DTD/svg11.dtd">
<svg version="1.1" id="Layer_1" xmlns="http://www.w3.org/2000/svg" xmlns:xlink="http://www.w3.org/1999/xlink" x="0px" y="0px"
	 width="300px" height="300px" viewBox="0 0 300 300" enable-background="new 0 0 300 300" xml:space="preserve">
<path fill-rule="evenodd" clip-rule="evenodd" fill="#49B649" d="M155.859,300.586c-0.146-0.849-0.401-1.695-0.414-2.546
	c-0.02-1.284,0.942-1.5,1.984-1.548c1.084-0.05,1.933,0.174,1.939,1.5c0.004,0.864,0.004,1.729,0.006,2.594
	C158.203,300.586,157.031,300.586,155.859,300.586z"/>
<path fill-rule="evenodd" clip-rule="evenodd" fill="#49B649" d="M0.586,157.031c1.396-0.461,2.979-1.481,3.952,0.416
	c0.405,0.79,0.654,2.216-0.577,2.786c-1.521,0.705-2.756,0.222-3.375-1.444C0.586,158.203,0.586,157.617,0.586,157.031z"/>
<path fill-rule="evenodd" clip-rule="evenodd" fill="#49B649" d="M147.656,300.586c0.127-3.731,0.604-4.336,2.812-3.637
	c2.064,0.654,0.9,2.412,1.29,3.637C150.391,300.586,149.023,300.586,147.656,300.586z"/>
<path fill-rule="evenodd" clip-rule="evenodd" fill="#49B649" d="M300.586,154.102c-0.67,0.039-1.34,0.083-2.01,0.115
	c-1.283,0.063-1.958-0.454-1.967-1.837c-0.009-1.398,0.664-1.882,1.959-1.807c0.671,0.039,1.346,0.011,2.018,0.013
	C300.586,151.758,300.586,152.93,300.586,154.102z"/>
<path fill-rule="evenodd" clip-rule="evenodd" fill="#49B649" d="M158.789,0.586c0.02,0.665,0.061,1.33,0.054,1.994
	c-0.012,1.095-0.068,2.092-1.627,2.088c-1.493-0.004-2.063-0.661-1.961-2.086c0.047-0.663,0.015-1.331,0.019-1.996
	C156.445,0.586,157.617,0.586,158.789,0.586z"/>
<path fill-rule="evenodd" clip-rule="evenodd" fill="#49B649" d="M0.586,142.383c0.901-1.438,2.322-1.555,3.563-0.895
	c0.952,0.506,0.795,1.917,0.265,2.638c-0.958,1.303-2.533,0.417-3.828,0.601C0.586,143.945,0.586,143.164,0.586,142.383z"/>
<path fill-rule="evenodd" clip-rule="evenodd" fill="#49B649" d="M151.172,0.586c-0.364,1.227,0.961,3.239-1.333,3.552
	c-3.092,0.422-1.996-2.024-2.183-3.552C148.828,0.586,150,0.586,151.172,0.586z"/>
<path fill-rule="evenodd" clip-rule="evenodd" fill="#49B649" d="M0.586,148.828c1.221,0.388,3.259-0.976,3.551,1.361
	c0.38,3.049-1.917,2.161-3.551,2.154C0.586,151.172,0.586,150,0.586,148.828z"/>
<path fill-rule="evenodd" clip-rule="evenodd" fill="#49B649" d="M283.785,59.733c-0.249,6.632-0.555,14.021-0.782,21.414
	c-0.057,1.832-0.214,2.771-2.443,1.678c-6.727-3.3-13.551-6.402-20.327-9.601c-1.162-0.548-2.729-0.802-1.675-2.843
	c1.014-1.962,2.191-0.994,3.379-0.445c5.123,2.37,10.256,4.721,15.337,7.175c1.697,0.82,2.183,0.438,2.227-1.387
	c0.134-5.643,0.422-11.281,0.575-16.924c0.042-1.552,0.703-2.05,2.173-1.92C283.615,57,284.188,57.624,283.785,59.733z"/>
<path fill-rule="evenodd" clip-rule="evenodd" fill="#49B649" d="M5.267,166.078c0.152,1.277-0.375,1.929-1.744,2.073
	c-1.701,0.181-1.921-0.96-2.116-2.134c-0.265-1.591,0.969-1.675,2.015-1.846C4.871,163.936,5.339,164.75,5.267,166.078z"/>
<path fill-rule="evenodd" clip-rule="evenodd" fill="#49B649" d="M166.745,2.76c-0.398,1.059,0.023,2.599-1.864,2.456
	c-1.433-0.109-2.076-0.761-2.013-2.235c0.051-1.157,0.376-1.886,1.686-1.785C165.628,1.279,166.775,1.254,166.745,2.76z"/>
<path fill-rule="evenodd" clip-rule="evenodd" fill="#49B649" d="M216.397,285.261c-1.282-0.373-1.739-1.488-1.744-2.432
	c-0.008-1.404,1.488-1.806,2.476-1.834c1.217-0.034,1.618,1.452,1.667,2.343C218.874,284.767,217.264,284.682,216.397,285.261z"/>
<path fill-rule="evenodd" clip-rule="evenodd" fill="#49B649" d="M18.648,215.421c1.533,0.322,1.914,1.58,1.984,2.586
	c0.09,1.287-1.373,1.612-2.259,1.699c-1.484,0.146-1.729-1.402-1.833-2.382C16.397,215.967,17.966,216.072,18.648,215.421z"/>
<path fill-rule="evenodd" clip-rule="evenodd" fill="#49B649" d="M51.101,257.986c0.959,0.491,2.03,1.114,2.034,2.183
	c0.003,1.128-0.809,2.439-2.007,2.345c-1.009-0.079-2.195-1.114-2.111-2.329C49.084,259.187,49.996,258.375,51.101,257.986z"/>
<path fill-rule="evenodd" clip-rule="evenodd" fill="#49B649" d="M248.834,264c-1.333-0.339-2.129-1.331-2.305-2.214
	c-0.254-1.283,1.104-2.173,2.09-2.337c1.035-0.173,1.988,1.057,2.168,1.996C251.046,262.805,249.405,263.085,248.834,264z"/>
<path fill-rule="evenodd" clip-rule="evenodd" fill="#49B649" d="M264.544,53.922c1.231,0.303,2.195,1.146,2.277,2.283
	c0.085,1.173-1.306,1.871-2.159,1.969c-1.196,0.137-2.153-1.162-2.261-2.167C262.291,54.972,263.548,54.392,264.544,53.922z"/>
<path fill-rule="evenodd" clip-rule="evenodd" fill="#49B649" d="M35.375,60.085c-0.993-0.445-2.263-0.889-2.31-1.962
	c-0.047-1.076,0.794-2.451,1.913-2.467c0.996-0.015,2.315,0.881,2.33,2.139C37.32,58.828,36.396,59.625,35.375,60.085z"/>
<path fill-rule="evenodd" clip-rule="evenodd" fill="#49B649" d="M57.005,263.17c0.938,0.543,2.315,0.907,2.22,2.029
	c-0.089,1.051-1.075,2.229-2.252,2.193c-0.951-0.027-2.209-0.807-2.186-1.935C54.811,264.292,55.839,263.524,57.005,263.17z"/>
<path fill-rule="evenodd" clip-rule="evenodd" fill="#49B649" d="M65.288,31.386c-0.579,1.068-1.336,1.959-2.444,1.881
	c-1.301-0.092-2.109-1.313-2.028-2.409c0.075-1.003,1.404-1.823,2.314-1.801C64.31,29.085,64.714,30.464,65.288,31.386z"/>
<path fill-rule="evenodd" clip-rule="evenodd" fill="#49B649" d="M63.084,272.389c-0.663-0.921-2.471-0.898-2.109-2.376
	c0.214-0.873,0.78-2.243,2.055-2.072c1.076,0.145,2.372,0.817,2.109,2.181C64.964,271.025,64.338,272.069,63.084,272.389z"/>
<path fill-rule="evenodd" clip-rule="evenodd" fill="#49B649" d="M202.636,291.302c-1.888,0.135-1.77-1.318-2.004-2.192
	c-0.443-1.649,1.171-1.632,2.039-1.801c1.682-0.326,1.84,1.287,1.992,2.297C204.904,291.218,203.056,290.569,202.636,291.302z"/>
<path fill-rule="evenodd" clip-rule="evenodd" fill="#49B649" d="M204.479,11.657c-0.636,0.865-0.299,2.563-1.927,2.163
	c-0.864-0.213-2.479-0.086-2.19-1.713c0.163-0.921,0.19-2.402,1.602-2.33C203.028,9.833,204.277,10.22,204.479,11.657z"/>
<path fill-rule="evenodd" clip-rule="evenodd" fill="#49B649" d="M250.735,39.157c-0.364,1.245-0.932,2.415-1.936,2.51
	c-1.164,0.11-2.226-0.981-2.365-2.086c-0.129-1.011,0.773-2.165,1.796-2.315C249.508,37.077,250.012,38.425,250.735,39.157z"/>
<path fill-rule="evenodd" clip-rule="evenodd" fill="#49B649" d="M195.787,289.651c1.456,0.202,1.447,1.56,1.507,2.409
	c0.113,1.613-1.514,1.646-2.516,1.726c-1.262,0.1-1.266-1.234-1.356-2.112C193.245,289.971,194.833,290.178,195.787,289.651z"/>
<path fill-rule="evenodd" clip-rule="evenodd" fill="#49B649" d="M253.985,42.432c1.069,0.542,2.266,1.291,2.28,2.392
	c0.012,0.937-1.119,2.083-2.109,2.114c-1.144,0.036-2.222-1.101-2.251-2.203C251.878,43.727,253.081,43.07,253.985,42.432z"/>
<path fill-rule="evenodd" clip-rule="evenodd" fill="#49B649" d="M280.135,225.902c-0.559,0.875-0.601,2.395-1.849,2.291
	c-0.983-0.082-2.474-0.605-2.399-1.984c0.051-0.952,0.639-2.247,1.912-2.182C278.807,224.079,279.793,224.682,280.135,225.902z"/>
<path fill-rule="evenodd" clip-rule="evenodd" fill="#49B649" d="M11.989,95.744c0.782,0.576,2.436,0.291,2.178,1.8
	c-0.159,0.934-0.036,2.675-1.863,2.287c-0.922-0.196-2.439-0.25-2.089-1.816C10.415,97.125,10.438,95.758,11.989,95.744z"/>
<path fill-rule="evenodd" clip-rule="evenodd" fill="#49B649" d="M42.6,52.075c-1.083,0.708-1.394,2.425-2.791,1.883
	c-0.831-0.322-2.191-1.131-1.75-2.31c0.336-0.9,1.075-2.334,2.467-1.857C41.429,50.101,42.151,51.035,42.6,52.075z"/>
<path fill-rule="evenodd" clip-rule="evenodd" fill="#49B649" d="M236.664,269.052c1.17,0.348,1.935,1.289,1.973,2.268
	c0.052,1.328-1.468,1.979-2.361,1.985c-1.091,0.008-1.972-1.341-1.933-2.417C234.382,269.767,235.702,269.456,236.664,269.052z"/>
<path fill-rule="evenodd" clip-rule="evenodd" fill="#49B649" d="M30.634,66.159c-0.945-0.486-2.262-0.879-2.229-1.987
	c0.032-1.063,0.757-2.404,2.093-2.341c1.012,0.047,2.124,0.909,2.073,2.042C32.527,64.865,31.757,65.767,30.634,66.159z"/>
<path fill-rule="evenodd" clip-rule="evenodd" fill="#49B649" d="M165.315,295.939c1.199-0.136,1.632,0.492,1.694,1.705
	c0.078,1.522-0.705,2.102-2.049,2.261c-1.751,0.207-1.438-1.149-1.624-2.129C163.035,296.19,164.068,295.992,165.315,295.939z"/>
<path fill-rule="evenodd" clip-rule="evenodd" fill="#49B649" d="M121.146,294.874c-0.801,0.587,0.336,2.584-1.693,2.35
	c-1.116-0.129-2.48-0.12-2.245-1.883c0.125-0.93,0.122-2.137,1.543-1.894C119.631,293.598,121.052,293.082,121.146,294.874z"/>
<path fill-rule="evenodd" clip-rule="evenodd" fill="#49B649" d="M276.268,68.535c-0.689,1.275-1.675,2.085-2.753,2.069
	c-1.146-0.017-1.755-1.4-1.818-2.295c-0.08-1.139,1.219-1.739,2.204-1.884C275.449,66.195,275.238,68.037,276.268,68.535z"/>
<path fill-rule="evenodd" clip-rule="evenodd" fill="#49B649" d="M288.479,207.398c-0.903-0.6-2.501-0.398-2.257-1.891
	c0.144-0.879,0.187-2.398,1.695-2.25c0.956,0.094,2.439,0.18,2.376,1.539C290.246,205.796,289.87,207.102,288.479,207.398z"/>
<path fill-rule="evenodd" clip-rule="evenodd" fill="#49B649" d="M264.847,247.273c-0.974-0.704-2.447-0.988-2.366-2.26
	c0.061-0.938,1.047-2.113,2.063-2.091c1.039,0.023,2.379,0.733,2.33,2.055C266.834,246.016,265.789,246.671,264.847,247.273z"/>
<path fill-rule="evenodd" clip-rule="evenodd" fill="#49B649" d="M300.065,160.093c-0.013,1.258-0.1,2.193-1.524,2.132
	c-1.401-0.061-2.104-0.633-2.082-2.137c0.02-1.342,0.47-1.947,1.882-1.852C299.73,158.331,300.235,159.011,300.065,160.093z"/>
<path fill-rule="evenodd" clip-rule="evenodd" fill="#49B649" d="M211.941,286.71c-0.266,1.362-1.484,1.505-2.424,1.667
	c-1.547,0.268-1.551-1.268-1.759-2.139c-0.367-1.53,1.162-1.7,2.05-1.852C211.442,284.107,211.274,285.84,211.941,286.71z"/>
<path fill-rule="evenodd" clip-rule="evenodd" fill="#49B649" d="M5.704,121.938c-1.195-0.124-2.457-0.1-1.935-1.563
	c0.296-0.831-0.314-2.646,1.79-2.196c1.234,0.264,2.313,0.486,2.016,2.115C7.361,121.463,6.961,122.404,5.704,121.938z"/>
<path fill-rule="evenodd" clip-rule="evenodd" fill="#49B649" d="M223.113,19.375c0.94,0.649,2.387,0.747,2.298,2.053
	c-0.066,0.979-0.598,2.367-1.768,2.292c-0.958-0.061-2.494-0.511-2.321-2.004C221.433,20.767,221.933,19.688,223.113,19.375z"/>
<path fill-rule="evenodd" clip-rule="evenodd" fill="#49B649" d="M209.925,16.907c-0.937-0.493-2.37-0.467-2.357-1.826
	c0.01-0.954,0.187-2.382,1.515-2.391c0.925-0.006,2.419,0.195,2.484,1.466C211.619,15.184,211.247,16.449,209.925,16.907z"/>
<path fill-rule="evenodd" clip-rule="evenodd" fill="#49B649" d="M229.8,23.509c0.962,0.444,2.406,0.665,2.363,1.83
	c-0.037,0.99-0.77,2.424-2.063,2.32c-0.871-0.069-2.315-0.537-2.242-1.841C227.916,24.797,228.566,23.808,229.8,23.509z"/>
<path fill-rule="evenodd" clip-rule="evenodd" fill="#49B649" d="M273.849,230.396c0.734,0.71,2.335,0.795,2.17,2.004
	c-0.13,0.959-0.656,2.485-2.067,2.303c-0.917-0.118-2.35-0.713-2.228-1.863C271.826,231.86,272.434,230.624,273.849,230.396z"/>
<path fill-rule="evenodd" clip-rule="evenodd" fill="#49B649" d="M236.331,27.553c0.7,0.951,2.518,0.902,2.163,2.384
	c-0.206,0.862-0.722,2.271-2.021,2.064c-0.962-0.153-2.33-0.756-2.245-1.878C234.304,29.118,235.093,28.042,236.331,27.553z"/>
<path fill-rule="evenodd" clip-rule="evenodd" fill="#49B649" d="M17.266,90.383c-0.528,0.911-0.381,2.482-1.727,2.408
	c-0.981-0.054-2.58-0.312-2.437-1.869c0.085-0.931,0.392-2.388,1.782-2.229C15.787,88.797,17.014,89.073,17.266,90.383z"/>
<path fill-rule="evenodd" clip-rule="evenodd" fill="#49B649" d="M78.299,278.227c-0.683,0.974-0.696,2.59-2.131,2.425
	c-0.878-0.102-2.25-0.634-2.151-1.916c0.075-0.967,0.516-2.353,1.669-2.349C76.686,276.389,77.826,277.03,78.299,278.227z"/>
<path fill-rule="evenodd" clip-rule="evenodd" fill="#49B649" d="M98.764,13.087c-0.203,1.295-1.416,1.386-2.326,1.563
	c-1.567,0.306-1.562-1.201-1.791-2.08c-0.414-1.585,1.153-1.642,2.006-1.823C98.33,10.392,98.165,12.075,98.764,13.087z"/>
<path fill-rule="evenodd" clip-rule="evenodd" fill="#49B649" d="M142.179,296.5c1.208-0.071,1.921,0.326,1.757,1.671
	c-0.148,1.219-0.626,1.967-2.035,1.937c-1.377-0.028-1.901-0.599-1.857-1.966C140.094,296.613,141.007,296.413,142.179,296.5z"/>
<path fill-rule="evenodd" clip-rule="evenodd" fill="#49B649" d="M25.655,68.035c1.153,0.463,2.5,0.807,2.593,1.855
	c0.092,1.034-0.597,2.434-1.865,2.492c-0.952,0.044-2.212-0.617-2.275-1.81C24.051,69.529,24.863,68.688,25.655,68.035z"/>
<path fill-rule="evenodd" clip-rule="evenodd" fill="#49B649" d="M128.285,4.54c0.028,1.56-0.922,1.852-2.103,1.89
	c-1.553,0.05-1.612-1.228-1.786-2.194c-0.306-1.702,1.269-1.468,2.145-1.651C128.144,2.249,128.014,3.681,128.285,4.54z"/>
<path fill-rule="evenodd" clip-rule="evenodd" fill="#49B649" d="M71.678,274.104c-0.38,1.062-0.785,2.359-1.811,2.478
	c-1.121,0.13-2.379-0.699-2.406-1.999c-0.02-0.972,0.595-2.238,1.79-2.229C70.249,272.362,71.134,273.15,71.678,274.104z"/>
<path fill-rule="evenodd" clip-rule="evenodd" fill="#49B649" d="M178.1,5.97c0.152-1.752,0.663-2.612,2.044-2.384
	c0.914,0.15,2.176,0.282,1.876,1.626c-0.188,0.851,0.067,2.472-1.594,2.203C179.401,7.249,177.912,7.234,178.1,5.97z"/>
<path fill-rule="evenodd" clip-rule="evenodd" fill="#49B649" d="M118.156,8.023c-1.394-0.235-1.285-1.579-1.387-2.454
	c-0.155-1.319,1.036-1.402,2.03-1.459c1.432-0.083,1.819,0.823,1.89,2.023C120.798,7.986,119.15,7.474,118.156,8.023z"/>
<path fill-rule="evenodd" clip-rule="evenodd" fill="#49B649" d="M195.492,11.37c-0.954-0.446-2.501-0.178-2.396-1.649
	c0.063-0.875-0.039-2.498,1.459-2.382c0.913,0.071,2.638-0.117,2.449,1.671C196.907,9.933,196.936,11.229,195.492,11.37z"/>
<path fill-rule="evenodd" clip-rule="evenodd" fill="#49B649" d="M103.654,12.145c-1.516-0.114-1.571-1.359-1.741-2.299
	c-0.289-1.595,1.164-1.515,2.085-1.731c1.933-0.454,1.678,1.379,1.835,2.246C106.112,11.901,104.389,11.525,103.654,12.145z"/>
<path fill-rule="evenodd" clip-rule="evenodd" fill="#49B649" d="M91.704,15.763c-0.083,1.567-1.386,1.635-2.262,1.875
	c-1.556,0.427-1.651-1.157-1.856-1.974c-0.415-1.651,1.205-1.848,2.192-2.006C91.271,13.421,90.984,15.107,91.704,15.763z"/>
<path fill-rule="evenodd" clip-rule="evenodd" fill="#49B649" d="M84.77,19.303c-0.308,1.25-1.396,1.657-2.387,1.705
	c-1.334,0.065-1.783-1.248-1.824-2.221c-0.057-1.323,1.299-1.666,2.281-1.728C84.195,16.975,84.3,18.35,84.77,19.303z"/>
<path fill-rule="evenodd" clip-rule="evenodd" fill="#49B649" d="M69.042,29.077c-1.116-0.434-1.83-1.562-1.867-2.541
	c-0.042-1.083,1.274-1.725,2.275-1.783c1.278-0.075,1.798,1.194,1.854,2.177C71.375,28.149,70.115,28.503,69.042,29.077z"/>
<path fill-rule="evenodd" clip-rule="evenodd" fill="#49B649" d="M244.786,34.611c-0.536,0.955-1.086,2.083-2.207,2.038
	c-1.043-0.041-2.122-0.962-2.081-2.011c0.044-1.1,0.936-2.294,2.205-2.149C243.665,32.6,244.498,33.488,244.786,34.611z"/>
<path fill-rule="evenodd" clip-rule="evenodd" fill="#49B649" d="M47.821,46.248c-0.382,1.058-1.083,1.996-2.115,2.127
	c-1.157,0.146-2.057-0.943-2.17-1.896c-0.146-1.22,0.929-2.23,2.083-2.267C46.666,44.178,47.329,45.258,47.821,46.248z"/>
<path fill-rule="evenodd" clip-rule="evenodd" fill="#49B649" d="M259.415,48.154c1.153,0.253,2.095,1.084,2.227,2.022
	c0.175,1.247-1.021,2.193-2.12,2.267c-1.038,0.07-1.995-0.997-2.074-2.031C257.361,49.28,258.517,48.731,259.415,48.154z"/>
<path fill-rule="evenodd" clip-rule="evenodd" fill="#49B649" d="M298.298,175.636c0.013,1.181-0.297,2.055-1.812,1.865
	c-1.511-0.188-1.861-1.1-1.762-2.439c0.076-1.025,0.424-1.768,1.579-1.471C297.311,173.85,298.869,173.722,298.298,175.636z"/>
<path fill-rule="evenodd" clip-rule="evenodd" fill="#49B649" d="M294.78,181.096c0.916,0.33,2.263,0.234,2.207,1.722
	c-0.039,1.028-0.206,2.301-1.647,2.242c-0.979-0.039-2.354-0.134-2.206-1.622C293.227,182.514,293.251,181.219,294.78,181.096z"/>
<path fill-rule="evenodd" clip-rule="evenodd" fill="#49B649" d="M9.397,189.138c0.056,1.447-1.186,1.658-2.141,1.757
	c-1.788,0.184-1.549-1.528-1.678-2.474c-0.179-1.3,1.176-1.333,2.046-1.426C9.079,186.84,9.299,187.953,9.397,189.138z"/>
<path fill-rule="evenodd" clip-rule="evenodd" fill="#49B649" d="M11.665,196.317c0.017,1.82-1.429,1.925-2.428,2.001
	c-1.48,0.111-1.376-1.456-1.467-2.317c-0.154-1.448,1.286-1.512,2.247-1.669C11.671,194.061,11.143,195.709,11.665,196.317z"/>
<path fill-rule="evenodd" clip-rule="evenodd" fill="#49B649" d="M6.305,127.136c-0.35,1.278-0.438,2.471-2.14,2.392
	c-1.39-0.065-1.911-0.609-1.817-1.954c0.088-1.281,0.507-2.057,1.982-1.682C5.177,126.107,6.437,125.721,6.305,127.136z"/>
<path fill-rule="evenodd" clip-rule="evenodd" fill="#49B649" d="M292.916,197.786c-0.553,0.683-0.031,2.319-1.538,2.226
	c-1.027-0.063-2.537-0.216-2.396-1.85c0.073-0.853,0.146-2.242,1.323-2.19C291.277,196.015,292.729,196.082,292.916,197.786z"/>
<path fill-rule="evenodd" clip-rule="evenodd" fill="#49B649" d="M17.322,210.946c-0.131,1.336-1.338,1.604-2.252,1.753
	c-1.632,0.267-1.756-1.364-1.876-2.297c-0.181-1.407,1.332-1.533,2.246-1.662C16.886,208.536,16.835,210.011,17.322,210.946z"/>
<path fill-rule="evenodd" clip-rule="evenodd" fill="#49B649" d="M284.735,210.09c0.887,0.752,2.628,0.398,2.476,2.006
	c-0.086,0.916-0.349,2.322-1.732,2.25c-0.991-0.052-2.297-0.4-2.282-1.718C283.206,211.678,283.553,210.577,284.735,210.09z"/>
<path fill-rule="evenodd" clip-rule="evenodd" fill="#49B649" d="M51.074,43.229c-1.095-0.344-2.066-1.125-2.149-2.096
	c-0.104-1.209,1.009-2.21,2.147-2.23c1.037-0.019,1.983,1.047,2.018,2.093C53.127,42.1,52.01,42.677,51.074,43.229z"/>
<path fill-rule="evenodd" clip-rule="evenodd" fill="#49B649" d="M22.461,222.236c1.27,0.288,1.784,1.435,1.823,2.349
	c0.059,1.382-1.412,1.909-2.434,1.908c-1.196-0.001-1.639-1.442-1.684-2.381C20.105,222.824,21.599,222.798,22.461,222.236z"/>
<path fill-rule="evenodd" clip-rule="evenodd" fill="#49B649" d="M26.518,228.786c1.146,0.371,1.806,1.498,1.82,2.352
	c0.021,1.218-1.285,1.947-2.41,1.902c-1.195-0.047-1.773-1.329-1.715-2.309C24.277,229.597,25.5,229.194,26.518,228.786z"/>
<path fill-rule="evenodd" clip-rule="evenodd" fill="#49B649" d="M32.8,237.54c-0.523,1.004-1.345,1.933-2.355,1.876
	c-1.234-0.071-2.067-1.311-1.94-2.438c0.117-1.044,1.365-1.818,2.371-1.729C31.946,235.345,32.389,236.548,32.8,237.54z"/>
<path fill-rule="evenodd" clip-rule="evenodd" fill="#49B649" d="M271.666,238.865c-0.82,0.765-0.843,2.496-2.333,2.199
	c-0.946-0.189-2.154-0.996-1.906-2.181c0.186-0.884,0.719-2.249,2.039-2.014C270.421,237.04,271.385,237.665,271.666,238.865z"/>
<path fill-rule="evenodd" clip-rule="evenodd" fill="#49B649" d="M35.405,241.114c1.079,0.511,1.867,1.393,1.916,2.441
	c0.057,1.202-1.109,2.062-2.104,2.021c-1.181-0.047-2.117-1.315-2.073-2.383C33.185,242.187,34.562,241.748,35.405,241.114z"/>
<path fill-rule="evenodd" clip-rule="evenodd" fill="#49B649" d="M42.539,249.342c-0.625,1.012-1.343,2.246-2.49,2.173
	c-0.947-0.062-2.034-1.191-2.037-2.212c-0.003-1.07,1.123-1.93,2.205-1.972C41.378,247.284,41.925,248.426,42.539,249.342z"/>
<path fill-rule="evenodd" clip-rule="evenodd" fill="#49B649" d="M259.583,248.493c1.013,0.654,2.207,1.24,2.077,2.33
	c-0.13,1.085-1.065,2.273-2.331,2.024c-0.922-0.18-2.055-1.089-1.862-2.244C257.634,249.593,258.652,248.955,259.583,248.493z"/>
<path fill-rule="evenodd" clip-rule="evenodd" fill="#49B649" d="M45.541,252.63c1.125,0.553,2.225,1.208,2.193,2.252
	c-0.034,1.145-1.063,2.243-2.254,2.12c-0.941-0.098-2.027-1.032-1.931-2.182C43.638,253.74,44.736,253.213,45.541,252.63z"/>
<path fill-rule="evenodd" clip-rule="evenodd" fill="#49B649" d="M256.408,256.468c-0.633,0.894-1.279,2.128-2.31,2.035
	c-1.083-0.097-2.222-1.124-1.972-2.409c0.185-0.948,1.004-2.152,2.197-1.876C255.278,254.439,256.071,255.359,256.408,256.468z"/>
<path fill-rule="evenodd" clip-rule="evenodd" fill="#49B649" d="M22.03,74.627c0.696,0.868,2.512,0.71,2.106,2.33
	c-0.233,0.927-0.63,2.32-2.013,1.972c-0.873-0.221-2.327-0.531-1.969-1.993C20.38,76.013,20.722,74.897,22.03,74.627z"/>
<path fill-rule="evenodd" clip-rule="evenodd" fill="#49B649" d="M4.665,171.822c1.574-0.103,1.448,1.309,1.594,2.201
	c0.254,1.549-1.099,1.583-2.114,1.697c-1.28,0.144-1.608-0.786-1.755-1.825C2.143,172.154,3.534,172.185,4.665,171.822z"/>
<path fill-rule="evenodd" clip-rule="evenodd" fill="#49B649" d="M103.652,289.125c0.989,0.516,2.52,0.138,2.48,1.661
	c-0.024,0.963-0.052,2.44-1.417,2.433c-0.971-0.005-2.636-0.049-2.529-1.676C102.243,290.69,102.354,289.368,103.652,289.125z"/>
<path fill-rule="evenodd" clip-rule="evenodd" fill="#49B649" d="M113.623,293.254c-0.569,0.638,0.02,2.265-1.612,2.134
	c-1.102-0.089-2.54-0.116-2.319-1.808c0.108-0.826,0.129-2.24,1.384-2.092C112.006,291.599,113.576,291.406,113.623,293.254z"/>
<path fill-rule="evenodd" clip-rule="evenodd" fill="#49B649" d="M128.493,296.487c-0.275,1.151,0.051,2.429-1.52,2.229
	c-1.376-0.175-2.36-0.691-2.18-2.393c0.132-1.248,0.749-1.714,1.905-1.552C127.833,294.932,128.836,295.267,128.493,296.487z"/>
<path fill-rule="evenodd" clip-rule="evenodd" fill="#49B649" d="M136.095,297.621c-0.18,1.089,0.02,2.29-1.752,1.984
	c-1.386-0.238-2.049-0.724-1.926-2.223c0.131-1.592,1.205-1.447,2.279-1.485C136.042,295.851,136.413,296.498,136.095,297.621z"/>
<path fill-rule="evenodd" clip-rule="evenodd" fill="#49B649" d="M133.645,1.754c1.534-0.202,2.233,0.314,2.279,1.713
	c0.04,1.194-0.364,1.74-1.648,1.83c-1.838,0.129-2.096-1.079-2.239-2.372C131.877,1.479,133.092,1.89,133.645,1.754z"/>
<path fill-rule="evenodd" clip-rule="evenodd" fill="#49B649" d="M172.701,2.343c0.818,0.084,2.035-0.093,1.704,1.239
	c-0.224,0.903,0.241,2.619-1.726,2.365c-1.02-0.131-2.237,0.056-2.161-1.601C170.583,2.922,171.206,2.184,172.701,2.343z"/>
<path fill-rule="evenodd" clip-rule="evenodd" fill="#49B649" d="M242.716,268.789c-1.237-0.223-1.95-1.151-2.104-2.16
	c-0.186-1.223,0.966-2.012,1.948-2.123c1.161-0.132,1.991,1.036,2.133,2.01C244.866,267.697,243.587,268.172,242.716,268.789z"/>
<path fill-rule="evenodd" clip-rule="evenodd" fill="#49B649" d="M295.894,167.6c-0.007-1.045,0.191-1.844,1.457-1.671
	c1.285,0.177,2.199,0.625,2.096,2.207c-0.076,1.154-0.35,1.871-1.692,1.751C296.27,169.754,295.697,168.964,295.894,167.6z"/>
<path fill-rule="evenodd" clip-rule="evenodd" fill="#49B649" d="M232.422,275.51c-0.373,1.385-1.436,1.823-2.384,1.997
	c-1.389,0.256-1.781-1.132-1.912-2.029c-0.181-1.234,1.064-1.847,2.024-2.031C231.737,273.143,231.462,275.045,232.422,275.51z"/>
<path fill-rule="evenodd" clip-rule="evenodd" fill="#49B649" d="M59.106,35.954c-0.339,1.128-1.224,1.863-2.228,1.942
	c-1.16,0.09-2.022-1.067-2.113-1.982c-0.13-1.315,1.319-2.018,2.301-2.106C58.092,33.716,58.672,34.949,59.106,35.954z"/>
<path fill-rule="evenodd" clip-rule="evenodd" fill="#49B649" d="M225.559,279.514c-0.07,1.403-1.248,1.857-2.157,2.008
	c-1.368,0.226-1.677-1.17-1.836-2.131c-0.231-1.396,1.14-1.844,2.047-1.98C224.955,277.207,225.052,278.665,225.559,279.514z"/>
<path fill-rule="evenodd" clip-rule="evenodd" fill="#49B649" d="M82.503,280.125c0.909,0.414,2.285,0.487,2.258,1.796
	c-0.02,0.944-0.358,2.387-1.542,2.391c-0.98,0.003-2.526-0.397-2.51-1.789C80.72,281.608,81.225,280.456,82.503,280.125z"/>
<path fill-rule="evenodd" clip-rule="evenodd" fill="#49B649" d="M75.972,20.624c1.337,0.125,1.792,1.287,1.953,2.186
	c0.276,1.543-1.353,1.833-2.279,1.98c-1.269,0.203-1.633-1.229-1.747-2.155C73.736,21.319,75.081,21.116,75.972,20.624z"/>
<path fill-rule="evenodd" clip-rule="evenodd" fill="#49B649" d="M91.868,285.393c-0.518,0.897-0.481,2.39-1.94,2.168
	c-0.91-0.138-2.402-0.222-2.196-1.698c0.131-0.936,0.421-2.332,1.846-2.171C90.525,283.799,91.763,283.966,91.868,285.393z"/>
<path fill-rule="evenodd" clip-rule="evenodd" fill="#49B649" d="M218.759,17.797c-0.726,0.732-0.465,2.491-2.095,2.204
	c-0.923-0.163-2.298-0.453-2.082-1.868c0.146-0.955,0.458-2.318,1.828-2.118C217.31,16.146,218.5,16.421,218.759,17.797z"/>
<path fill-rule="evenodd" clip-rule="evenodd" fill="#49B649" d="M98.955,288.355c-0.476,0.865-0.318,2.369-1.852,2.181
	c-0.979-0.119-2.342-0.297-2.118-1.827c0.131-0.893,0.286-2.16,1.596-2.052C97.563,286.738,98.78,286.897,98.955,288.355z"/>
<path fill-rule="evenodd" clip-rule="evenodd" fill="#49B649" d="M11.67,104.853c-0.467,0.833-0.201,2.304-1.673,2.271
	c-0.987-0.022-2.298-0.177-2.289-1.587c0.007-0.98,0.147-2.325,1.569-2.274C10.219,103.295,11.43,103.427,11.67,104.853z"/>
<path fill-rule="evenodd" clip-rule="evenodd" fill="#49B649" d="M9.333,112.696c-0.296,0.7-0.121,2.095-1.508,1.814
	c-0.906-0.184-2.7,0.222-2.327-1.693c0.176-0.907,0.211-2.249,1.816-2.085C8.465,110.849,9.42,111.123,9.333,112.696z"/>
<path fill-rule="evenodd" clip-rule="evenodd" fill="#49B649" d="M295.168,190.528c-0.557,0.699-0.063,2.416-1.74,2.048
	c-0.897-0.197-2.324-0.148-2.171-1.734c0.117-1.22,0.499-2.359,2.089-2.081C294.263,188.923,295.307,189.125,295.168,190.528z"/>
<path fill-rule="evenodd" clip-rule="evenodd" fill="#49B649" d="M14.423,203.951c-0.385,1.343-1.556,1.581-2.516,1.577
	c-1.382-0.007-1.609-1.454-1.643-2.379c-0.053-1.406,1.415-1.439,2.353-1.478C14.073,201.613,13.896,203.113,14.423,203.951z"/>
<path fill-rule="evenodd" clip-rule="evenodd" fill="#49B649" d="M188.004,291.906c1.515-0.012,1.689,1.117,1.771,2.145
	c0.117,1.464-1.093,1.661-2.121,1.773c-1.583,0.174-1.517-1.274-1.705-2.171C185.597,291.989,187.287,292.464,188.004,291.906z"/>
<path fill-rule="evenodd" clip-rule="evenodd" fill="#49B649" d="M113.096,7.901c0.116,1.709-1.319,1.802-2.328,1.876
	c-1.57,0.115-1.301-1.471-1.465-2.349c-0.259-1.388,1.09-1.367,1.945-1.497C112.676,5.715,113.023,6.723,113.096,7.901z"/>
<path fill-rule="evenodd" clip-rule="evenodd" fill="#49B649" d="M180.446,293.63c1.579,0.052,1.729,1.011,1.772,2.015
	c0.07,1.615-1.105,1.907-2.297,1.937c-1.661,0.04-1.29-1.489-1.443-2.363C178.167,293.443,180.09,294.396,180.446,293.63z"/>
<path fill-rule="evenodd" clip-rule="evenodd" fill="#49B649" d="M283.919,219.077c-0.553,0.877-0.55,2.379-1.887,2.248
	c-1.002-0.098-2.537-0.436-2.259-1.967c0.15-0.832,0.355-2.357,1.824-2.054C282.52,217.495,283.694,217.772,283.919,219.077z"/>
<path fill-rule="evenodd" clip-rule="evenodd" fill="#49B649" d="M174.602,297.012c0.163,1.447-0.633,1.772-1.894,1.835
	c-1.802,0.087-1.688-1.266-1.803-2.314c-0.201-1.838,1.404-1.158,2.237-1.339C174.61,294.874,174.524,296.076,174.602,297.012z"/>
<path fill-rule="evenodd" clip-rule="evenodd" fill="#49B649" d="M187.706,5.314c0.731,0.28,2.119,0.164,1.847,1.507
	c-0.18,0.887,0.191,2.703-1.725,2.32c-0.922-0.184-2.243-0.224-2.091-1.823C185.848,6.151,186.145,5.214,187.706,5.314z"/>
<path fill-rule="evenodd" clip-rule="evenodd" fill="#49B649" d="M6.002,179.378c1.409,0.099,1.567,1.05,1.589,2.049
	c0.034,1.597-1.141,1.895-2.331,1.89c-1.606-0.009-1.314-1.538-1.417-2.394C3.65,179.331,5.348,179.943,6.002,179.378z"/>
<path fill-rule="evenodd" clip-rule="evenodd" fill="#49B649" d="M3.247,137.117c-0.899-0.094-2.141,0.22-1.871-1.408
	c0.199-1.196,0.467-2.28,2.139-2.148c1.187,0.094,1.792,0.449,1.75,1.734C5.222,136.661,4.608,137.261,3.247,137.117z"/>
<path fill-rule="evenodd" clip-rule="evenodd" fill="#49B649" d="M271.62,62.408c-0.544,1.025-1.415,1.887-2.477,1.809
	c-1.139-0.083-1.903-1.313-1.754-2.312c0.146-0.98,1.168-2.026,2.273-1.888C270.777,60.157,271.06,61.507,271.62,62.408z"/>
<path fill-rule="evenodd" clip-rule="evenodd" fill="#49B649" d="M20.468,83.745c-0.545,0.686-0.373,2.262-1.852,1.977
	c-0.915-0.176-2.314-0.455-2.112-1.873c0.136-0.961,0.449-2.326,1.82-2.14C19.26,81.836,20.432,82.24,20.468,83.745z"/>
<path fill-rule="evenodd" clip-rule="evenodd" fill="#49B649" d="M141.641,4.659c-1.512,0.123-1.677-0.879-1.672-2.038
	c0.004-1.332,0.883-1.494,1.933-1.535c1.536-0.06,1.648,0.913,1.646,2.073C143.545,4.495,142.748,4.744,141.641,4.659z"/>
<path fill-rule="evenodd" clip-rule="evenodd" fill="#49B649" d="M150.575,34.869C84.516,34.883,35.027,88.531,34.961,150.453
	c-0.066,62.173,49.602,115.87,115.637,115.847c66.167-0.022,115.885-53.771,115.521-115.578
	C266.644,88.739,216.744,34.854,150.575,34.869z M239.779,83.045c11.665,15.448,19.027,32.696,21.623,51.937
	c0.495,3.666,0.881,7.332,1.105,11.022c0.11,1.822-0.2,3.136-2.465,2.811c-1.682-0.242-4.261,1.008-3.992-2.451
	c0.06-0.771,0.017-1.569-0.493-2.237c-1.416-22.925-9.682-43.134-24.143-60.887C235.592,78.217,236.085,78.153,239.779,83.045z
	 M171.445,40.556c20.796,4.102,39.122,13.174,54.739,27.59c2.146,1.98,4.249,3.986,6.244,6.128c1.365,1.466,1.042,2.298-0.372,3.144
	c-1.232,0.737-2.001,2.188-3.607,2.335c-9.047-9.536-19.237-17.56-31.065-23.393c-9.452-4.661-19.351-7.966-29.791-9.562
	c-2.684-1.756-3.822-4.822-6.533-7.36C164.975,39.065,168.239,39.924,171.445,40.556z M161.122,45.735
	c-7.024-0.359-14.049-0.37-21.073-0.001c0.312-0.487,0.589-1,0.94-1.456C147.127,36.319,155.398,36.92,161.122,45.735z
	 M68.956,74.08c7.055-7.628,15.07-14.052,23.936-19.422c13.663-8.277,28.487-13.243,44.3-15.321
	c0.746-0.098,1.517-0.012,3.091-0.012c-2.834,2.55-3.974,5.651-6.703,7.475c-22.684,3.771-42.027,13.955-58.168,30.29
	c-0.887,0.897-1.792,1.777-2.688,2.666c-1.607-0.147-2.366-1.613-3.61-2.331C67.366,76.416,67.671,75.469,68.956,74.08z
	 M38.709,144.833c1.436-23.814,9.516-45.123,24.221-63.928c1.399-1.79,2.559-2.023,4.156-0.302c0.846,0.912,2.071,1.46,2.676,2.638
	c-12.492,15.176-20.273,32.475-23.282,51.895c-0.46,2.97-0.587,5.992-0.869,8.991c-0.513,0.668-0.562,1.47-0.488,2.237
	c0.184,1.926-0.649,2.503-2.534,2.492C38.598,148.833,38.462,148.921,38.709,144.833z M61.395,218.133
	c-11.677-15.444-19.025-32.702-21.62-51.941c-0.521-3.857-0.965-7.711-1.127-11.605c-0.093-2.213,1.171-2.399,2.771-2.211
	c1.505,0.178,3.83-0.966,3.693,2.14c-0.038,0.863-0.075,1.769,0.5,2.531c1.424,22.923,9.681,43.136,24.148,60.886
	C65.568,222.997,65.115,223.054,61.395,218.133z M129.376,260.557c-22.22-4.396-41.358-14.69-57.604-30.429
	c-0.281-0.271-0.557-0.548-0.828-0.829c-4.078-4.244-3.833-5.326,1.778-7.885c10.27,10.87,22.042,19.645,35.815,25.608
	c8.042,3.482,16.36,6.048,25.046,7.348c2.676,1.772,3.828,4.828,6.539,7.383C136.072,262.047,132.701,261.214,129.376,260.557z
	 M140.049,255.433c7.024,0.368,14.048,0.371,21.072-0.001c-0.311,0.487-0.587,1.002-0.938,1.458
	C154.063,264.854,145.756,264.25,140.049,255.433z M232.337,226.866c-8.261,9.138-17.962,16.433-28.747,22.314
	c-12.377,6.75-25.631,10.788-39.573,12.648c-0.755,0.101-1.536,0.013-3.154,0.013c2.872-2.523,3.983-5.649,6.727-7.47
	c22.686-3.769,42.026-13.959,58.171-30.289c0.887-0.896,1.792-1.776,2.688-2.664c1.949,0.386,2.993,2.087,4.472,3.147
	C234.265,225.531,232.909,226.234,232.337,226.866z M238.24,220.267c-1.396,1.786-2.558,2.032-4.16,0.313
	c-0.85-0.911-2.064-1.472-2.667-2.648c12.481-15.18,20.272-32.474,23.275-51.896c0.46-2.971,0.588-5.992,0.869-8.99
	c0.51-0.669,0.563-1.47,0.489-2.237c-0.186-1.927,0.651-2.503,2.534-2.493c3.994,0.021,4.128-0.066,3.882,4.021
	C261.034,180.155,252.936,201.457,238.24,220.267z"/>
<path fill-rule="evenodd" clip-rule="evenodd" fill="#00BDFF" d="M46.14,157.474c0.219-4.594,0.219-4.601,5.002-4.602
	c20.41-0.003,40.82,0.042,61.229-0.06c2.456-0.012,3.054,0.703,3.087,3.088c0.183,13.18,0.934,26.33,2.72,39.402
	c0.197,1.446,0.054,2.25-1.706,2.65c-16.429,3.734-31.782,9.95-45.381,20.1c-0.221,0.165-0.534,0.207-0.804,0.307
	c-1.464,0.022-2.243-0.986-3.035-1.996c-10.98-14.009-17.892-29.821-21.009-47.32c-0.41-2.301-0.711-4.618-1.02-6.933
	C45.009,160.506,44.643,158.779,46.14,157.474z"/>
<path fill-rule="evenodd" clip-rule="evenodd" fill="#00BDFF" d="M232.117,218.534c-5.404-3.449-10.68-7.099-16.439-9.969
	c-9.371-4.668-19.199-8.025-29.373-10.377c-1.627-0.376-2.363-0.788-2.109-2.62c1.838-13.239,2.598-26.562,2.752-39.915
	c0.027-2.351,0.916-2.646,2.926-2.64c20.471,0.061,40.943,0.034,61.416,0.03c4.758,0,4.758-0.004,4.973,4.604
	c1.428,1.201,1.141,2.829,0.965,4.347c-2.26,19.479-9.008,37.208-20.834,52.915C235.273,216.396,234.471,218.43,232.117,218.534z"/>
<path fill-rule="evenodd" clip-rule="evenodd" fill="#00BDFF" d="M256.262,144.729c-0.215,4.592-0.215,4.595-4.971,4.596
	c-20.375,0.003-40.752-0.049-61.125,0.073c-2.623,0.016-3.205-0.728-3.234-3.246c-0.152-13.157-0.941-26.283-2.715-39.333
	c-0.176-1.297-0.111-2.151,1.521-2.516c16.619-3.716,32.084-10.073,45.83-20.297c0.145-0.107,0.365-0.111,0.551-0.164
	c1.463-0.021,2.242,0.988,3.033,1.999c10.98,14.008,17.893,29.82,21.008,47.319c0.41,2.301,0.713,4.618,1.021,6.932
	C257.395,141.697,257.762,143.424,256.262,144.729z"/>
<path fill-rule="evenodd" clip-rule="evenodd" fill="#00BDFF" d="M70.291,82.712c5.412,3.456,10.688,7.119,16.464,9.996
	c9.389,4.677,19.237,8.027,29.428,10.377c1.731,0.399,2.239,0.965,2,2.703c-1.798,13.068-2.547,26.219-2.723,39.398
	c-0.031,2.403-0.665,3.08-3.104,3.067c-20.409-0.101-40.818-0.06-61.228-0.057c-4.779,0-4.779,0.009-4.988-4.598
	c-1.424-1.203-1.139-2.83-0.963-4.349c2.261-19.479,9.009-37.208,20.836-52.916C67.133,84.848,67.936,82.813,70.291,82.712z"/>
<path fill-rule="evenodd" clip-rule="evenodd" fill="#00BDFF" d="M151.15,152.871c9.752,0,19.506,0.037,29.258-0.032
	c1.846-0.015,2.539,0.444,2.523,2.444c-0.104,13.271-0.957,26.488-2.498,39.669c-0.162,1.386-0.57,1.851-2.004,1.599
	c-14.102-2.49-28.295-2.836-42.533-1.58c-3.972,0.351-7.929,0.927-11.872,1.539c-1.471,0.229-2.05,0.02-2.24-1.619
	c-1.521-13.085-2.362-26.204-2.496-39.379c-0.024-2.355,0.868-2.697,2.897-2.68C131.84,152.917,141.496,152.87,151.15,152.871z"/>
<path fill-rule="evenodd" clip-rule="evenodd" fill="#00BDFF" d="M151.133,149.325c-9.461,0-18.922-0.084-28.38,0.057
	c-2.485,0.037-3.334-0.474-3.296-3.175c0.183-12.978,0.992-25.903,2.5-38.793c0.176-1.502,0.513-1.999,2.131-1.727
	c18.131,3.049,36.276,3.021,54.411,0.023c1.311-0.216,1.936-0.111,2.109,1.422c1.504,13.183,2.408,26.396,2.496,39.67
	c0.014,2.156-0.771,2.576-2.713,2.56C170.639,149.282,160.885,149.325,151.133,149.325z"/>
<path fill-rule="evenodd" clip-rule="evenodd" fill="#00BDFF" d="M161.65,45.207c4.271,5.211,6.785,11.347,9.066,17.569
	c4.072,11.113,6.432,22.66,8.482,34.285c0.471,2.673-0.166,3.596-3.002,4.027c-17.225,2.62-34.401,2.543-51.584-0.261
	c-1.231-0.201-1.971-0.482-1.727-2.009c2.833-17.667,6.36-35.116,15.612-50.804c0.588-0.998,1.381-1.875,2.079-2.808
	c2.787-2.119,6.209-1.472,9.242-1.582C153.74,43.481,157.934,43.085,161.65,45.207z"/>
<path fill-rule="evenodd" clip-rule="evenodd" fill="#00BDFF" d="M141.013,255.426c-4.163-5.04-6.619-10.989-8.861-17.015
	c-4.23-11.371-6.661-23.198-8.717-35.121c-0.422-2.447,0.107-3.269,2.756-3.677c17.219-2.653,34.394-2.624,51.577,0.185
	c1.225,0.199,2.305,0.216,2.014,2.032c-2.822,17.565-6.344,34.912-15.459,50.547c-0.631,1.082-1.486,2.035-2.238,3.048
	c-2.783,2.133-6.207,1.477-9.24,1.587C148.923,257.155,144.729,257.557,141.013,255.426z"/>
<path fill-rule="evenodd" clip-rule="evenodd" fill="#00BDFF" d="M134.109,46.271c0.732,0.553,0.116,1.064-0.119,1.493
	c-7.691,14.038-11.086,29.404-13.936,44.94c-0.14,0.766-0.278,1.531-0.419,2.297c-0.863,4.706-0.868,4.724-5.658,3.511
	c-13.799-3.496-26.724-8.962-38.436-17.138c-0.855-0.597-1.914-1.021-2.29-2.147c-0.156-1.339,0.727-2.167,1.521-3.016
	c11.209-11.983,24.767-20.382,40.045-26.113c5.022-1.884,10.188-3.33,15.466-4.323C131.586,45.529,132.98,45.001,134.109,46.271z"/>
<path fill-rule="evenodd" clip-rule="evenodd" fill="#00BDFF" d="M229.152,80.356c-3.742,3.956-8.598,6.262-13.262,8.809
	c-9.189,5.019-19.025,8.359-29.137,10.978c-2.527,0.655-3.488,0.188-3.869-2.568c-1.484-10.709-3.836-21.246-7.174-31.539
	c-1.861-5.739-4.041-11.36-6.988-16.654c-0.322-0.576-1.219-1.127-0.426-1.98c1.455-1.492,3.152-0.652,4.684-0.335
	c12.637,2.617,24.371,7.489,35.287,14.35c6.965,4.377,13.336,9.485,18.955,15.505C228.139,77.902,229.297,78.771,229.152,80.356z"/>
<path fill-rule="evenodd" clip-rule="evenodd" fill="#00BDFF" d="M73.687,221.407c3.885-3.926,8.755-6.379,13.53-8.942
	c9.131-4.902,18.851-8.252,28.875-10.815c2.507-0.642,3.479-0.196,3.862,2.549c1.506,10.802,3.893,21.424,7.276,31.803
	c1.84,5.645,3.995,11.163,6.88,16.374c0.321,0.581,1.202,1.132,0.438,1.988c-1.454,1.499-3.152,0.656-4.683,0.339
	c-12.639-2.615-24.375-7.487-35.293-14.35c-6.966-4.379-13.338-9.487-18.959-15.508C74.697,223.863,73.541,222.993,73.687,221.407z"
	/>
<path fill-rule="evenodd" clip-rule="evenodd" fill="#00BDFF" d="M168.293,254.975c-0.635-0.396-0.234-0.841-0.021-1.226
	c7.697-13.919,11.088-29.189,14.01-44.607c0.164-0.859,0.262-1.731,0.424-2.591c0.949-4.996,0.969-5.06,6.008-3.752
	c13.67,3.549,26.525,8.945,38.137,17.092c0.852,0.598,1.932,0.995,2.303,2.131c0.154,1.339-0.727,2.168-1.523,3.015
	c-11.232,11.948-24.762,20.395-40.049,26.113c-5.115,1.914-10.371,3.391-15.754,4.375
	C170.6,255.749,169.314,256.153,168.293,254.975z"/>
</svg>
